<svg xmlns="http://www.w3.org/2000/svg" viewBox="0 0 1080 1080"><defs><style>.cls-1{isolation:isolate;}.cls-2{fill:#f9af00;}.cls-3{fill:#cdd7d7;mix-blend-mode:soft-light;}</style></defs><title>pet</title><g class="cls-1"><g id="Capa_1" data-name="Capa 1"><path class="cls-2" d="M556.14,480.06h-250V279.67h250ZM334.8,446.42H527.62V313.47H334.8Z"/><path class="cls-2" d="M365,372.79V350.06a17,17,0,0,1,17-17h0a14.38,14.38,0,0,1,14.38,14.38v25.33Z"/><path class="cls-2" d="M499.49,373.23l.23-22.74a17,17,0,0,0-16.82-17.14h0a14.38,14.38,0,0,0-14.52,14.24l-.25,25.33Z"/><rect class="cls-2" x="369.15" y="688.31" width="124.11" height="68.05"/><path class="cls-2" d="M567.41,958.55c-88.27,0-160.1-55.94-160.1-124.7V727.21h47.52V833.85c0,48.95,50.65,88.67,112.58,88.67Z"/><path class="cls-2" d="M567.41,586.29c0-7.9,8.42-14.37,19.15-14.37V551.29c-10.73,0-19.15-6.36-19.15-14.37s8.42-14.36,19.15-14.36V501.93c-10.73,0-19.15-6.47-19.15-14.37s8.42-14.47,19.15-14.47V454.81H275.86v18.28c10.46,0,19,6.46,19,14.47s-8.55,14.37-19,14.37v20.63c10.46,0,19,6.36,19,14.36s-8.55,14.37-19,14.37v20.63c10.46,0,19,6.47,19,14.37s-8.41,14.47-19,14.47c.28,64.66,69.67,117,155.35,117s154.94-52.34,155.35-117C575.83,600.76,567.41,594.3,567.41,586.29Z"/><path class="cls-2" d="M420,398.09l-.17,16.26c-.07,6.71,7.47,12.22,16.85,12.32h0c7.94.09,14.43-4.45,14.49-10.13l.19-18.12Z"/><path class="cls-3" d="M431.86,471.59l-18,31.16L427,502.7l.35,90.28c-20.86-1.21-23-12.41-23.24-34.24a15.85,15.85,0,1,0-10,0c.19,21.52,2.07,42.55,33.26,44.17l.1,26a15.86,15.86,0,1,0,10,0l-.17-43.35c13.88-1,23-6.06,27.75-15.42,4.32-8.51,4.51-19.5,4.48-31.21l8.84,0-.11-27.19-27.19.1.11,27.2,8.38,0c0,10.84-.12,20.2-3.4,26.66-2.13,4.19-6.24,8.93-18.9,9.95l-.28-72.9,13.15-.05Z"/></g></g></svg>