<?xml version="1.0" encoding="utf-8"?>
<!-- Generator: Adobe Illustrator 24.0.2, SVG Export Plug-In . SVG Version: 6.00 Build 0)  -->
<svg version="1.1" xmlns="http://www.w3.org/2000/svg" xmlns:xlink="http://www.w3.org/1999/xlink" x="0px" y="0px"
	 viewBox="0 0 584.68 745.02" style="enable-background:new 0 0 584.68 745.02;" xml:space="preserve">
<style type="text/css">
	.st0{opacity:0.97;fill:url(#SVGID_1_);stroke:url(#SVGID_2_);stroke-miterlimit:10;}
	.st1{fill:#F9AF00;}
	.st2{fill:#CDD7D7;}
	.st3{fill:url(#SVGID_3_);}
</style>
<g id="Capa_2">
</g>
<g id="Capa_1">
	<radialGradient id="SVGID_1_" cx="184.1064" cy="136.6383" r="153.2604" gradientUnits="userSpaceOnUse">
		<stop  offset="0" style="stop-color:#FFFFFF"/>
		<stop  offset="0" style="stop-color:#F6F6F6"/>
		<stop  offset="1" style="stop-color:#BFBDBE"/>
	</radialGradient>
	<linearGradient id="SVGID_2_" gradientUnits="userSpaceOnUse" x1="70.2447" y1="136.6383" x2="297.9681" y2="136.6383">
		<stop  offset="0" style="stop-color:#FFFFFF"/>
		<stop  offset="1" style="stop-color:#000000"/>
	</linearGradient>
	<rect x="70.74" y="55.45" class="st0" width="226.72" height="162.38"/>
	<g>
		<g>
			<g>
				<g>
					<path class="st1" d="M313.07,239.04H63.09V38.65h249.99V239.04z M91.74,205.4h192.82V72.44H91.74V205.4z"/>
				</g>
				<g>
					<g>
						<path class="st1" d="M121.88,131.77v-22.74c0-9.38,7.6-16.98,16.98-16.98h0c7.94,0,14.38,6.44,14.38,14.38v25.33H121.88z"/>
					</g>
					<g>
						<g>
							<path class="st1" d="M256.43,132.21l0.22-22.74c0.09-9.38-7.44-17.05-16.81-17.15h0c-7.94-0.08-14.45,6.3-14.52,14.24
								l-0.25,25.33L256.43,132.21z"/>
						</g>
					</g>
				</g>
				<g>
					<rect x="126.09" y="447.29" class="st1" width="124.11" height="68.05"/>
				</g>
				<g>
					<path class="st1" d="M324.34,717.53c-88.27,0-160.1-55.94-160.1-124.7V486.19h47.53v106.64c0,48.96,50.65,88.68,112.57,88.68
						V717.53z"/>
				</g>
			</g>
			<g>
				<path class="st1" d="M324.34,345.27c0-7.9,8.42-14.37,19.15-14.37v-20.63c-10.73,0-19.15-6.36-19.15-14.37
					c0-8,8.42-14.37,19.15-14.37V260.9c-10.73,0-19.15-6.46-19.15-14.37c0-8.01,8.42-14.47,19.15-14.47v-18.27H32.8v18.27
					c10.46,0,19.01,6.46,19.01,14.47c0,7.9-8.55,14.37-19.01,14.37v20.63c10.46,0,19.01,6.36,19.01,14.37
					c0,8.01-8.55,14.37-19.01,14.37v20.63c10.46,0,19.01,6.47,19.01,14.37c0,8-8.41,14.47-19.01,14.47
					c0.27,64.66,69.66,117,155.35,117c85.55,0,154.94-52.34,155.35-117C332.76,359.74,324.34,353.27,324.34,345.27z"/>
			</g>
		</g>
	</g>
	<g>
		<g>
			<path class="st1" d="M166.62,159.39l-0.15,14.15c-0.06,5.84,11.03,10.69,24.77,10.83h0c11.64,0.12,21.12-3.79,21.17-8.73
				l0.17-15.77L166.62,159.39z"/>
		</g>
	</g>
	<path class="st2" d="M188.79,230.56l-18.01,31.16l13.15-0.05l0.35,90.29c-20.86-1.21-22.99-12.41-23.24-34.24
		c6.3-2.12,10.83-8.08,10.81-15.09c-0.03-8.76-7.16-15.84-15.93-15.8s-15.84,7.16-15.8,15.92c0.03,7.02,4.61,12.95,10.94,15.02
		c0.19,21.53,2.07,42.55,33.26,44.18l0.1,25.97c-6.31,2.12-10.85,8.08-10.82,15.09c0.03,8.76,7.17,15.84,15.93,15.8
		c8.76-0.03,15.84-7.16,15.8-15.93c-0.03-7.02-4.61-12.94-10.94-15.01l-0.17-43.35c13.88-1,23-6.06,27.76-15.42
		c4.32-8.51,4.51-19.5,4.47-31.21l8.84-0.03l-0.1-27.2l-27.19,0.1l0.1,27.2l8.38-0.03c0.01,10.84-0.12,20.21-3.39,26.66
		c-2.13,4.19-6.24,8.93-18.9,9.96l-0.28-72.91l13.15-0.05L188.79,230.56z"/>
	<g>
		
			<rect x="332.65" y="667.82" transform="matrix(-0.0244 0.9997 -0.9997 -0.0244 1063.2754 364.3884)" class="st1" width="42.37" height="66.4"/>
	</g>
	<g>
		<path class="st1" d="M319.39,688.74c0,0,0.06,5.29-2.9,9.27c-2.96,3.98-13.27,4.49-13.27,4.49l-35.06-0.86l-0.11,4.53l55.94,1.36
			l0.46-18.68L319.39,688.74z"/>
	</g>
	<g>
		<path class="st1" d="M362.48,727.13l1.36-55.9c0.14-5.63,4.81-10.08,10.44-9.94l114.78,2.8l-1.86,76.27l-114.78-2.8
			C366.79,737.43,362.34,732.76,362.48,727.13z"/>
	</g>
	<g>
		<path class="st1" d="M487.46,728.52l-106.1-2.59c-5.63-0.14-10.08-4.81-9.94-10.44l1.32-54.21c-4.93,0.61-8.8,4.75-8.92,9.86
			l-1.36,55.9c-0.14,5.63,4.31,10.3,9.94,10.44l114.78,2.8L487.46,728.52z"/>
	</g>
	<g>
		<radialGradient id="SVGID_3_" cx="518.9061" cy="702.9505" r="29.3395" gradientUnits="userSpaceOnUse">
			<stop  offset="0" style="stop-color:#FFFFFF"/>
			<stop  offset="0" style="stop-color:#F6F6F6"/>
			<stop  offset="1" style="stop-color:#D8D1D3"/>
		</radialGradient>
		<polygon class="st3" points="487.46,728.51 488.74,675.88 550.35,677.39 549.07,730.02 		"/>
	</g>
</g>
</svg>
