<svg xmlns="http://www.w3.org/2000/svg" xmlns:xlink="http://www.w3.org/1999/xlink" viewBox="0 0 540 1080"><defs><style>.cls-1{fill:none;}.cls-2{isolation:isolate;}.cls-3{fill:#575756;}.cls-4{clip-path:url(#clip-path);}.cls-5{mix-blend-mode:overlay;}.cls-6{fill:#fff;}.cls-7{clip-path:url(#clip-path-2);}.cls-8{fill:url(#Degradado_sin_nombre_5);}.cls-9{mix-blend-mode:soft-light;}.cls-10{fill:#97cca4;}.cls-11{fill:#a8ab9b;}</style><clipPath id="clip-path"><rect id="SVGID" class="cls-1" x="259.04" y="558.56" width="22.5" height="16.88"/></clipPath><clipPath id="clip-path-2"><polygon class="cls-1" points="-159.11 1199.5 842.99 1327.04 1017.96 -14.11 15.86 -141.65 -159.11 1199.5"/></clipPath><radialGradient id="Degradado_sin_nombre_5" cx="516.79" cy="661.25" r="846.4" gradientTransform="translate(-162.69 -103.55) scale(1.16 1.08)" gradientUnits="userSpaceOnUse"><stop offset="0" stop-color="#102b41"/><stop offset="0.07" stop-color="#0f2539"/><stop offset="0.28" stop-color="#0b1725"/><stop offset="0.5" stop-color="#090e19"/><stop offset="0.71" stop-color="#080b15"/></radialGradient></defs><title>herosection</title><g class="cls-2"><g id="Capa_1" data-name="Capa 1"><rect class="cls-3" x="-4.33" y="3.67" width="540" height="1080"/><g class="cls-4"><g class="cls-5"><g id="triangle36"><path class="cls-6" d="M277.13,564.31l.06,0-3.5,1.22.21-2.16v0Zm-.07,0-3.12-.91-.2,2.07Z"/></g><g id="triangle36-2" data-name="triangle36"><path class="cls-6" d="M273.73,565.55l-1.53-.9h0l1.76-1.29Zm0-.07.2-2-1.65,1.2Z"/></g><g id="triangle36-3" data-name="triangle36"><path class="cls-6" d="M281.79,565.6h0l-1.67,2v0l-3.06-3.38Zm0,0-4.56-1.27,2.93,3.25Z"/></g><g id="triangle36-4" data-name="triangle36"><path class="cls-6" d="M281.85,570.58v.08l-1.74-3v0l1.67-2,0,0Zm0-.07-.05-4.84-1.61,2Z"/></g><g id="triangle36-5" data-name="triangle36"><polygon class="cls-6" points="277.12 563.29 277.08 563.29 277.11 564.3 273.96 563.39 274.07 563.29 274.01 563.29 273.88 563.4 273.92 563.41 277.15 564.35 277.15 564.33 277.12 563.29"/></g><g id="triangle36-6" data-name="triangle36"><path class="cls-6" d="M270,566.33l-.67,2.19v0l-2.51-3.24,0-.05Zm0,0-3.08-1,2.42,3.12Z"/></g><g id="triangle36-7" data-name="triangle36"><path class="cls-6" d="M273.72,565.5l0,0-3.78.84-.08,0,2.29-1.76h0Zm-.06,0-1.44-.85-2.15,1.65Z"/></g><g id="triangle36-8" data-name="triangle36"><polygon class="cls-6" points="279.98 563.29 279.93 563.29 281.73 565.59 277.17 564.32 278.43 563.29 278.37 563.29 277.08 564.34 277.12 564.35 281.83 565.65 281.8 565.61 279.98 563.29"/></g><g id="triangle36-9" data-name="triangle36"><path class="cls-6" d="M260.39,568.3h0l-1.56,2.44,0,.06.05-5v-.07Zm0,0-1.46-2.46-.05,4.82Z"/></g><g id="triangle36-10" data-name="triangle36"><path class="cls-6" d="M269.33,568.5l0,0L266,568h0l.84-2.71v0Zm-.06,0-2.43-3.14L266,568Z"/></g><g id="triangle36-11" data-name="triangle36"><path class="cls-6" d="M271.92,569.76v0L270,566.35v0l3.75-.83h0Zm0,0,1.78-4.17-3.66.82Z"/></g><g id="triangle36-12" data-name="triangle36"><path class="cls-6" d="M274.56,570v0l-2.67-.26h0l1.83-4.26,0-.06Zm0,0-.81-4.41-1.78,4.16Z"/></g><g id="triangle36-13" data-name="triangle36"><polygon class="cls-6" points="268.31 563.29 268.27 563.29 269.95 566.31 266.87 565.3 268.19 563.29 268.14 563.29 266.81 565.32 266.83 565.33 270.03 566.38 270.01 566.33 268.31 563.29"/></g><g id="triangle36-14" data-name="triangle36"><polygon class="cls-6" points="268.57 563.29 268.46 563.29 272.17 564.64 270 566.31 268.31 563.29 268.27 563.29 269.98 566.37 270 566.36 272.25 564.63 272.22 564.62 268.57 563.29"/></g><g id="triangle36-15" data-name="triangle36"><polygon class="cls-6" points="272.45 563.29 272.2 564.61 268.57 563.29 268.46 563.29 272.23 564.66 272.23 564.64 272.49 563.29 272.45 563.29"/></g><g id="triangle36-16" data-name="triangle36"><path class="cls-6" d="M262.41,567.11v0l-2,1.2-.05,0,1.47-3.11,0,0Zm0,0-.55-1.8-1.4,3Z"/></g><g id="triangle36-17" data-name="triangle36"><path class="cls-6" d="M260.37,568.35l-1.51-2.56,0,0,3-.52h0Zm0-.08,1.42-3-2.89.51Z"/></g><g id="triangle36-18" data-name="triangle36"><polygon class="cls-6" points="261.32 563.29 261.28 563.29 261.8 565.24 258.92 565.75 260.59 563.29 260.54 563.29 258.83 565.8 258.88 565.79 261.85 565.27 261.84 565.25 261.32 563.29"/></g><g id="triangle36-19" data-name="triangle36"><path class="cls-6" d="M266.85,565.3l0,0-2.73.7,1.7-1.91v0Zm-.05,0-.95-1.15-1.59,1.8Z"/></g><g id="triangle36-20" data-name="triangle36"><path class="cls-6" d="M266,568v0L264.16,566l2.67-.68h0Zm0,0,.81-2.62-2.57.65Z"/></g><g id="triangle36-21" data-name="triangle36"><path class="cls-6" d="M264.15,566l-2.3-.7.55,1.8Z"/><path class="cls-6" d="M264.2,566c-.45.34-1.24.82-1.82,1.19a8.47,8.47,0,0,1-.51-1.65"/></g><g id="triangle36-22" data-name="triangle36"><path class="cls-6" d="M264.17,566l-.65-2.05-1.66,1.35Z"/></g><g id="triangle36-23" data-name="triangle36"><path class="cls-6" d="M266,568l.05,0-3.73-.9L264.2,566Zm-.07,0-1.75-2-1.76,1.1Z"/></g><g id="triangle36-24" data-name="triangle36"><path class="cls-6" d="M265.81,564.14l-2.26-.26.66,2.06Z"/></g><g id="triangle36-25" data-name="triangle36"><path class="cls-6" d="M277.26,567.79,274.55,570l0,0-.84-4.53v0Zm-.06,0-3.46-2.23.81,4.42Z"/></g><g id="triangle36-26" data-name="triangle36"><path class="cls-6" d="M277.25,567.83l-3.55-2.3,0,0,3.45-1.2h0Zm0-.08-.1-3.4-3.35,1.17Z"/></g><g id="triangle36-27" data-name="triangle36"><path class="cls-6" d="M280.14,567.62l0,0-2.94.16h0l-.1-3.48v-.06Zm-.06,0-2.93-3.24.1,3.39Z"/></g><path class="cls-6" d="M272.09,569.76a.17.17,0,0,0-.17-.16.16.16,0,0,0-.16.16.17.17,0,0,0,.16.17A.18.18,0,0,0,272.09,569.76Z"/><path class="cls-6" d="M273.88,565.52a.17.17,0,0,0-.17-.17.17.17,0,0,0-.16.17.16.16,0,0,0,.16.16A.16.16,0,0,0,273.88,565.52Z"/><path class="cls-6" d="M281.93,565.59a.17.17,0,0,0-.16-.17.18.18,0,0,0-.17.17.17.17,0,0,0,.17.16A.16.16,0,0,0,281.93,565.59Z"/><path class="cls-6" d="M270.14,566.34a.16.16,0,0,0-.16-.16.17.17,0,0,0-.17.16.18.18,0,0,0,.17.17A.17.17,0,0,0,270.14,566.34Z"/><path class="cls-6" d="M269.49,568.52a.16.16,0,0,0-.16-.16.16.16,0,1,0,0,.32A.16.16,0,0,0,269.49,568.52Z"/><path class="cls-6" d="M266.17,568a.17.17,0,0,0-.16-.17.18.18,0,0,0-.17.17.17.17,0,0,0,.17.16A.16.16,0,0,0,266.17,568Z"/><path class="cls-6" d="M262.57,567.11a.16.16,0,0,0-.16-.16.17.17,0,0,0-.17.16.18.18,0,0,0,.17.17A.17.17,0,0,0,262.57,567.11Z"/><path class="cls-6" d="M259,565.8a.16.16,0,0,0-.32,0,.16.16,0,1,0,.32,0Z"/><path class="cls-6" d="M260.53,568.3a.18.18,0,0,0-.17-.17.17.17,0,0,0-.16.17.16.16,0,0,0,.16.16A.17.17,0,0,0,260.53,568.3Z"/><path class="cls-6" d="M259,570.81a.16.16,0,0,0-.17-.16.16.16,0,1,0,0,.32A.16.16,0,0,0,259,570.81Z"/><path class="cls-6" d="M264.36,566a.16.16,0,1,0-.32,0,.16.16,0,0,0,.32,0Z"/><path class="cls-6" d="M274.7,570a.16.16,0,0,0-.17-.16.16.16,0,0,0-.16.16.17.17,0,0,0,.16.17A.17.17,0,0,0,274.7,570Z"/><path class="cls-6" d="M277.39,567.79a.16.16,0,0,0-.17-.16.16.16,0,1,0,0,.32A.16.16,0,0,0,277.39,567.79Z"/><path class="cls-6" d="M280.28,567.64a.16.16,0,0,0-.16-.16.17.17,0,0,0-.17.16.18.18,0,0,0,.17.17A.17.17,0,0,0,280.28,567.64Z"/><path class="cls-6" d="M282,570.58a.17.17,0,0,0-.17-.16.16.16,0,0,0-.16.16.17.17,0,0,0,.16.17A.18.18,0,0,0,282,570.58Z"/></g><g class="cls-5"><g id="triangle36-28" data-name="triangle36"><path class="cls-6" d="M277.13,564.31l.06,0-3.5,1.22.21-2.16v0Zm-.07,0-3.12-.91-.2,2.07Z"/></g><g id="triangle36-29" data-name="triangle36"><path class="cls-6" d="M273.73,565.55l-1.53-.9h0l1.76-1.29Zm0-.07.2-2-1.65,1.2Z"/></g><g id="triangle36-30" data-name="triangle36"><path class="cls-6" d="M281.79,565.6h0l-1.67,2v0l-3.06-3.38Zm0,0-4.56-1.27,2.93,3.25Z"/></g><g id="triangle36-31" data-name="triangle36"><path class="cls-6" d="M281.85,570.58v.08l-1.74-3v0l1.67-2,0,0Zm0-.07-.05-4.84-1.61,2Z"/></g><g id="triangle36-32" data-name="triangle36"><polygon class="cls-6" points="277.12 563.29 277.08 563.29 277.11 564.3 273.96 563.39 274.07 563.29 274.01 563.29 273.88 563.4 273.92 563.41 277.15 564.35 277.15 564.33 277.12 563.29"/></g><g id="triangle36-33" data-name="triangle36"><path class="cls-6" d="M270,566.33l-.67,2.19v0l-2.51-3.24,0-.05Zm0,0-3.08-1,2.42,3.12Z"/></g><g id="triangle36-34" data-name="triangle36"><path class="cls-6" d="M273.72,565.5l0,0-3.78.84-.08,0,2.29-1.76h0Zm-.06,0-1.44-.85-2.15,1.65Z"/></g><g id="triangle36-35" data-name="triangle36"><polygon class="cls-6" points="279.98 563.29 279.93 563.29 281.73 565.59 277.17 564.32 278.43 563.29 278.37 563.29 277.08 564.34 277.12 564.35 281.83 565.65 281.8 565.61 279.98 563.29"/></g><g id="triangle36-36" data-name="triangle36"><path class="cls-6" d="M260.39,568.3h0l-1.56,2.44,0,.06.05-5v-.07Zm0,0-1.46-2.46-.05,4.82Z"/></g><g id="triangle36-37" data-name="triangle36"><path class="cls-6" d="M269.33,568.5l0,0L266,568h0l.84-2.71v0Zm-.06,0-2.43-3.14L266,568Z"/></g><g id="triangle36-38" data-name="triangle36"><path class="cls-6" d="M271.92,569.76v0L270,566.35v0l3.75-.83h0Zm0,0,1.78-4.17-3.66.82Z"/></g><g id="triangle36-39" data-name="triangle36"><path class="cls-6" d="M274.56,570v0l-2.67-.26h0l1.83-4.26,0-.06Zm0,0-.81-4.41-1.78,4.16Z"/></g><g id="triangle36-40" data-name="triangle36"><polygon class="cls-6" points="268.31 563.29 268.27 563.29 269.95 566.31 266.87 565.3 268.19 563.29 268.14 563.29 266.81 565.32 266.83 565.33 270.03 566.38 270.01 566.33 268.31 563.29"/></g><g id="triangle36-41" data-name="triangle36"><polygon class="cls-6" points="268.57 563.29 268.46 563.29 272.17 564.64 270 566.31 268.31 563.29 268.27 563.29 269.98 566.37 270 566.36 272.25 564.63 272.22 564.62 268.57 563.29"/></g><g id="triangle36-42" data-name="triangle36"><polygon class="cls-6" points="272.45 563.29 272.2 564.61 268.57 563.29 268.46 563.29 272.23 564.66 272.23 564.64 272.49 563.29 272.45 563.29"/></g><g id="triangle36-43" data-name="triangle36"><path class="cls-6" d="M262.41,567.11v0l-2,1.2-.05,0,1.47-3.11,0,0Zm0,0-.55-1.8-1.4,3Z"/></g><g id="triangle36-44" data-name="triangle36"><path class="cls-6" d="M260.37,568.35l-1.51-2.56,0,0,3-.52h0Zm0-.08,1.42-3-2.89.51Z"/></g><g id="triangle36-45" data-name="triangle36"><polygon class="cls-6" points="261.32 563.29 261.28 563.29 261.8 565.24 258.92 565.75 260.59 563.29 260.54 563.29 258.83 565.8 258.88 565.79 261.85 565.27 261.84 565.25 261.32 563.29"/></g><g id="triangle36-46" data-name="triangle36"><path class="cls-6" d="M266.85,565.3l0,0-2.73.7,1.7-1.91v0Zm-.05,0-.95-1.15-1.59,1.8Z"/></g><g id="triangle36-47" data-name="triangle36"><path class="cls-6" d="M266,568v0L264.16,566l2.67-.68h0Zm0,0,.81-2.62-2.57.65Z"/></g><g id="triangle36-48" data-name="triangle36"><path class="cls-6" d="M264.15,566l-2.3-.7.55,1.8Z"/><path class="cls-6" d="M264.2,566c-.45.34-1.24.82-1.82,1.19a8.47,8.47,0,0,1-.51-1.65"/></g><g id="triangle36-49" data-name="triangle36"><path class="cls-6" d="M264.17,566l-.65-2.05-1.66,1.35Z"/></g><g id="triangle36-50" data-name="triangle36"><path class="cls-6" d="M266,568l.05,0-3.73-.9L264.2,566Zm-.07,0-1.75-2-1.76,1.1Z"/></g><g id="triangle36-51" data-name="triangle36"><path class="cls-6" d="M265.81,564.14l-2.26-.26.66,2.06Z"/></g><g id="triangle36-52" data-name="triangle36"><path class="cls-6" d="M277.26,567.79,274.55,570l0,0-.84-4.53v0Zm-.06,0-3.46-2.23.81,4.42Z"/></g><g id="triangle36-53" data-name="triangle36"><path class="cls-6" d="M277.25,567.83l-3.55-2.3,0,0,3.45-1.2h0Zm0-.08-.1-3.4-3.35,1.17Z"/></g><g id="triangle36-54" data-name="triangle36"><path class="cls-6" d="M280.14,567.62l0,0-2.94.16h0l-.1-3.48v-.06Zm-.06,0-2.93-3.24.1,3.39Z"/></g><path class="cls-6" d="M272.09,569.76a.17.17,0,0,0-.17-.16.16.16,0,0,0-.16.16.17.17,0,0,0,.16.17A.18.18,0,0,0,272.09,569.76Z"/><path class="cls-6" d="M273.88,565.52a.17.17,0,0,0-.17-.17.17.17,0,0,0-.16.17.16.16,0,0,0,.16.16A.16.16,0,0,0,273.88,565.52Z"/><path class="cls-6" d="M281.93,565.59a.17.17,0,0,0-.16-.17.18.18,0,0,0-.17.17.17.17,0,0,0,.17.16A.16.16,0,0,0,281.93,565.59Z"/><path class="cls-6" d="M270.14,566.34a.16.16,0,0,0-.16-.16.17.17,0,0,0-.17.16.18.18,0,0,0,.17.17A.17.17,0,0,0,270.14,566.34Z"/><path class="cls-6" d="M269.49,568.52a.16.16,0,0,0-.16-.16.16.16,0,1,0,0,.32A.16.16,0,0,0,269.49,568.52Z"/><path class="cls-6" d="M266.17,568a.17.17,0,0,0-.16-.17.18.18,0,0,0-.17.17.17.17,0,0,0,.17.16A.16.16,0,0,0,266.17,568Z"/><path class="cls-6" d="M262.57,567.11a.16.16,0,0,0-.16-.16.17.17,0,0,0-.17.16.18.18,0,0,0,.17.17A.17.17,0,0,0,262.57,567.11Z"/><path class="cls-6" d="M259,565.8a.16.16,0,0,0-.32,0,.16.16,0,1,0,.32,0Z"/><path class="cls-6" d="M260.53,568.3a.18.18,0,0,0-.17-.17.17.17,0,0,0-.16.17.16.16,0,0,0,.16.16A.17.17,0,0,0,260.53,568.3Z"/><path class="cls-6" d="M259,570.81a.16.16,0,0,0-.17-.16.16.16,0,1,0,0,.32A.16.16,0,0,0,259,570.81Z"/><path class="cls-6" d="M264.36,566a.16.16,0,1,0-.32,0,.16.16,0,0,0,.32,0Z"/><path class="cls-6" d="M274.7,570a.16.16,0,0,0-.17-.16.16.16,0,0,0-.16.16.17.17,0,0,0,.16.17A.17.17,0,0,0,274.7,570Z"/><path class="cls-6" d="M277.39,567.79a.16.16,0,0,0-.17-.16.16.16,0,1,0,0,.32A.16.16,0,0,0,277.39,567.79Z"/><path class="cls-6" d="M280.28,567.64a.16.16,0,0,0-.16-.16.17.17,0,0,0-.17.16.18.18,0,0,0,.17.17A.17.17,0,0,0,280.28,567.64Z"/><path class="cls-6" d="M282,570.58a.17.17,0,0,0-.17-.16.16.16,0,0,0-.16.16.17.17,0,0,0,.16.17A.18.18,0,0,0,282,570.58Z"/></g></g><g class="cls-7"><g class="cls-7"><polygon class="cls-8" points="-622.46 1134.1 789.69 1313.83 1036.26 -576.09 -375.9 -755.82 -622.46 1134.1"/><g class="cls-9"><path class="cls-10" d="M345.57,132.15a1.2,1.2,0,0,1,.07-.59L463.46-142.79c.09-.22.23-.3.34-.21a.72.72,0,0,1,.1.6L421.09,121.73c0,.27-.17.47-.3.49l-75,10.22c-.07,0-.14-.05-.18-.15A.47.47,0,0,1,345.57,132.15ZM463-140.26,346.43,131.24l74.22-10.11Z"/><path class="cls-10" d="M183,258.05a.86.86,0,0,1,.22-.5L345.78,131.36c.1-.08.2-.05.26.08a.8.8,0,0,1,0,.52l-46,270.1a.78.78,0,0,1-.19.42q-.13.12-.24,0L183.12,258.58l-.05-.09A1.18,1.18,0,0,1,183,258.05ZM345.41,132.76,183.93,258.14l115.78,143Z"/><path class="cls-10" d="M145.82,569.68,183,258.05a.93.93,0,0,1,.18-.46c.09-.09.19-.1.26,0L300,401.48a.7.7,0,0,1,.09.49,1,1,0,0,1-.18.5L146.17,570.2a.16.16,0,0,1-.27,0l0-.06A.86.86,0,0,1,145.82,569.68ZM183.45,259l-37,309.73L299.28,402Z"/><path class="cls-10" d="M420.61,122.06a.9.9,0,0,1,0-.47l42.81-264.14c.05-.29.2-.51.34-.48s.22.28.18.58L433.55,117.63c0,.27-.15.5-.28.54l-12.45,4c-.08,0-.16,0-.21-.14ZM462-130.72,421.21,121l11.87-3.86Z"/><path class="cls-10" d="M-72.34,1085.62-41,780.24a.92.92,0,0,1,.15-.43c.07-.12.16-.16.24-.11L7.13,806.06a.42.42,0,0,1,.14.29,1,1,0,0,1,0,.46l-79.08,279c-.07.26-.21.4-.33.36a.24.24,0,0,1-.12-.14A.88.88,0,0,1-72.34,1085.62ZM-40.57,781l-30.92,301.63L6.62,807Z"/><path class="cls-10" d="M-41,780.42a1.18,1.18,0,0,1,.1-.54L-.77,699.64c.08-.16.18-.23.27-.19s.16.17.17.35L7.28,806.41a1.1,1.1,0,0,1-.11.58c-.08.15-.19.22-.28.17l-47.77-26.37a.26.26,0,0,1-.1-.14A.52.52,0,0,1-41,780.42ZM-.8,701.1l-39.45,78.81,46.92,25.9Z"/><path class="cls-10" d="M6.74,806.8-.87,700.19a1.19,1.19,0,0,1,.11-.57c.09-.15.2-.22.29-.16l19.25,12.22c.11.06.16.3.13.55L7.27,806.64c0,.27-.14.49-.27.53s-.16,0-.21-.14A1,1,0,0,1,6.74,806.8Zm-7-106,7.35,103,11.24-91.17Z"/><path class="cls-10" d="M299.61,402.39a1,1,0,0,1,0-.5l46-270.09c.05-.27.17-.46.3-.48s.22.15.23.4l7,247.94a1.22,1.22,0,0,1-.08.43.46.46,0,0,1-.2.27l-53,22.16c-.09.05-.17,0-.22-.13Zm46-267.78L300.22,401.26l52.36-21.88Z"/><path class="cls-10" d="M6.75,806.59l11.64-94.4a.92.92,0,0,1,.17-.46L146,569.23c.13-.15.26-.12.33.13a1.08,1.08,0,0,1-.1.75L7.16,807c-.1.16-.22.2-.31.11l-.06-.1A1,1,0,0,1,6.75,806.59Zm12.13-94.05L7.45,805.22,144,572.63Z"/><path class="cls-10" d="M433,117.6l30.36-260.08a.9.9,0,0,1,.21-.51c.1-.08.21,0,.27.09L552.27,49a1.06,1.06,0,0,1,0,.54.66.66,0,0,1-.22.42L433.3,118.15c-.08,0-.17,0-.22-.1s0,0,0,0A1,1,0,0,1,433,117.6Zm30.76-258.9L433.64,116.86,551.53,49.15Z"/><path class="cls-10" d="M463.43-142.71c.08-.24.21-.36.33-.31l105.3,48.94c.12.06.19.29.15.56L552.32,49.42a.8.8,0,0,1-.21.49c-.1.09-.21.06-.27-.09L463.43-142h0A1,1,0,0,1,463.43-142.71Zm105.2,49.63-104.1-48.38,87.4,189.69Z"/><path class="cls-10" d="M145.82,569.76a.91.91,0,0,1,.18-.54L299.75,401.5c.1-.12.21-.11.28,0a.9.9,0,0,1,.05.57L248.43,658.64a.83.83,0,0,1-.17.39.15.15,0,0,1-.22,0l-102.1-88.82a.18.18,0,0,1-.07-.11A.81.81,0,0,1,145.82,569.76ZM299.33,403.1,146.71,569.6l101.36,88.17Z"/><path class="cls-10" d="M6.75,806.88a1.09,1.09,0,0,1,.12-.67L145.94,569.3c.11-.18.25-.21.34-.06L229.53,708a.82.82,0,0,1,.06.57.67.67,0,0,1-.25.45L7,807.16c-.09,0-.17,0-.22-.13A.66.66,0,0,1,6.75,806.88ZM146,570.43,8,805.64,228.7,708.16Z"/><path class="cls-10" d="M6.76,806.55c0-.24.13-.44.25-.48l222.32-98.19a.18.18,0,0,1,.23.13,1.18,1.18,0,0,1,0,.51L178.83,987.57a1,1,0,0,1-.18.41.17.17,0,0,1-.24,0L6.85,807.13l-.06-.1A.93.93,0,0,1,6.76,806.55Zm222.17-97.4L7.83,806.8,178.45,986.67Z"/><path class="cls-10" d="M299.56,402c0-.29.14-.55.27-.6l53-22.18c.14-.05.26.13.27.42a.82.82,0,0,1-.25.67l-38.31,23.57a.1.1,0,0,1-.09,0l-14.73-1.39q-.09,0-.15-.15A.79.79,0,0,1,299.56,402Zm47.73-19.34L302,401.62l12.57,1.19Z"/><path class="cls-10" d="M352.6,380l-7-247.92a1.08,1.08,0,0,1,.09-.48c.06-.14.14-.22.22-.23l75-10.22c.09,0,.17.07.21.22a1.15,1.15,0,0,1,0,.52L353.1,380c-.06.23-.18.39-.3.38s-.12-.05-.16-.14A1,1,0,0,1,352.6,380Zm-6.48-247.56,7,245.51,67.3-255.62Z"/><path class="cls-10" d="M-72.32,1086a1.06,1.06,0,0,1,0-.53l79.09-279a.51.51,0,0,1,.21-.34c.08-.05.16,0,.22.1l138.64,271.68a1,1,0,0,1,0,.63c0,.22-.17.37-.28.37l-217.72,7.33c-.07,0-.13,0-.17-.14ZM7,807.52-71.62,1085,145,1077.76Z"/><path class="cls-10" d="M6.81,806.33c.1-.25.25-.34.37-.23L178.73,987a.52.52,0,0,1,.11.33,1,1,0,0,1-.07.45l-32.91,90.81a.5.5,0,0,1-.21.29c-.08,0-.15,0-.21-.11L6.8,807.06v0A1.06,1.06,0,0,1,6.81,806.33ZM178.17,987.75,8.71,809.09l137,268.36Z"/><path class="cls-10" d="M433,117.63a.74.74,0,0,1,.25-.56L552,48.85c.1-.06.2,0,.25.17a1.08,1.08,0,0,1,0,.59L520.7,157.27c-.08.25-.22.4-.34.34l-87.19-39.44a.33.33,0,0,1-.11-.14A1,1,0,0,1,433,117.63Zm118.5-67.37L434.41,117.52l86,38.9Z"/><path class="cls-10" d="M145.87,569.45c.1-.26.25-.37.36-.26L248.34,658a.53.53,0,0,1,.11.34,1.24,1.24,0,0,1-.06.47l-18.86,49.9a.49.49,0,0,1-.19.27.16.16,0,0,1-.2-.08L145.89,570.18l0-.06A1.09,1.09,0,0,1,145.87,569.45Zm101.9,89.37L147.9,571.94l81.43,135.69Z"/><path class="cls-10" d="M352.63,379.62l68-258.14a.52.52,0,0,1,.25-.37l12.45-4c.1,0,.19,0,.23.21a1.13,1.13,0,0,1,0,.57L353.09,380c-.09.28-.25.4-.37.3a1,1,0,0,1-.08-.11A1.19,1.19,0,0,1,352.63,379.62ZM421,122.16,356.6,366.69l76.18-248.36Z"/><path class="cls-10" d="M248,658.35,314.33,403.2c.05-.21.15-.35.25-.38s.19.05.23.22L348,543.87a1.24,1.24,0,0,1,0,.43.91.91,0,0,1-.16.37L248.28,659a.17.17,0,0,1-.3,0v0A1,1,0,0,1,248,658.35Zm66.57-253.76L248.8,657.24,347.37,544Z"/><path class="cls-10" d="M247.94,658.41l51.64-256.54c.06-.27.19-.46.32-.45l14.73,1.39c.08,0,.15.11.18.24a1.06,1.06,0,0,1,0,.5L248.42,658.7c-.07.29-.23.45-.36.37a.22.22,0,0,1-.09-.13A.9.9,0,0,1,247.94,658.41ZM300,402.56l-49.65,246.6,63.8-245.26Z"/><path class="cls-10" d="M-72.31,1085.49c0-.25.17-.42.29-.43l217.72-7.33c.09,0,.16.09.2.23a1,1,0,0,1,0,.49L94.27,1301.09a.68.68,0,0,1-.19.36.14.14,0,0,1-.22,0L-72.25,1086.11a.21.21,0,0,1,0-.07A.92.92,0,0,1-72.31,1085.49Zm217.55-6.63-216.35,7.29L94,1300.11Z"/><path class="cls-10" d="M352.65,379.58l80.42-262.19c.07-.25.21-.38.32-.33l87.19,39.45c.1,0,.16.21.16.42a1,1,0,0,1-.16.58L353,380.26c-.1.15-.24.14-.31,0l0,0A1.08,1.08,0,0,1,352.65,379.58Zm80.73-261.33L353.67,378.14,519.8,157.35Z"/><path class="cls-10" d="M352.6,379.94a.93.93,0,0,1,.16-.59L520.36,156.6q.12-.15.24-.09a.44.44,0,0,1,.14.32l27.63,277a1.07,1.07,0,0,1-.09.56c-.07.16-.17.24-.27.22L352.78,380.37a.3.3,0,0,1-.14-.15A1,1,0,0,1,352.6,379.94Zm167.67-222L353.6,379.43l194.15,53.92Z"/><path class="cls-10" d="M347.49,544.52,314.31,403.7a1.06,1.06,0,0,1,0-.5.6.6,0,0,1,.21-.37l38.3-23.56a.15.15,0,0,1,.22.06.69.69,0,0,1,.08.38L348,544.11a.86.86,0,0,1-.23.6c-.1.09-.21,0-.26-.1A.24.24,0,0,1,347.49,544.52ZM315,403.68,347.54,542l5-161.43Z"/><path class="cls-10" d="M347.46,544.28l5.13-164.39a1.12,1.12,0,0,1,.13-.47c.07-.13.16-.2.24-.17l195.23,54.22c.13,0,.2.25.18.52a.75.75,0,0,1-.25.58L347.75,544.73q-.12.07-.21-.06a.14.14,0,0,1,0-.06A.81.81,0,0,1,347.46,544.28Zm5.65-163.82-5.08,163L546.74,434.23Z"/><path class="cls-10" d="M347.47,544.16a.7.7,0,0,1,.25-.5L548.09,433.49c.1-.06.19,0,.25.17a1.08,1.08,0,0,1,0,.59l-70.45,238.6a.65.65,0,0,1-.17.31.15.15,0,0,1-.21,0L347.58,544.71a.17.17,0,0,1-.06-.1A.9.9,0,0,1,347.47,544.16Zm200.1-109.28-199,109.42L477.59,671.9Z"/><path class="cls-10" d="M178.32,987.39l50.76-279.06a.59.59,0,0,1,.27-.46c.11,0,.22.08.24.28l33.12,208.63a1.17,1.17,0,0,1,0,.45.61.61,0,0,1-.18.33L178.63,988c-.1.08-.2,0-.27-.07s0,0,0,0A1,1,0,0,1,178.32,987.39Zm51-277.28L179,986.55l83.09-69.77Z"/><path class="cls-10" d="M520.24,157.45a1,1,0,0,1,0-.6L551.83,49.18c.06-.19.16-.32.25-.34L707.31,13.78c.13,0,.24.16.24.42a.91.91,0,0,1-.23.66L520.51,157.58c-.1.08-.2,0-.26-.1S520.24,157.46,520.24,157.45Zm32-107.53L521.05,156.06,705.22,15.36Z"/><path class="cls-10" d="M520.21,157a.75.75,0,0,1,.22-.49L707.23,13.82a.15.15,0,0,1,.24,0,.79.79,0,0,1,.08.44L681.86,367.17a.9.9,0,0,1-.18.5c-.09.11-.19.12-.27,0L520.29,157.55l0-.07A1,1,0,0,1,520.21,157ZM707,15.14l-185.86,142,160.3,209.08Z"/><path class="cls-10" d="M247.92,658.59a1,1,0,0,1,.17-.54l99.55-114.33c.09-.09.17-.11.24-.05a.48.48,0,0,1,.13.36L356.44,741a1.17,1.17,0,0,1-.13.57c-.09.14-.19.19-.28.12l-108-82.58a.41.41,0,0,1-.08-.13A.72.72,0,0,1,247.92,658.59ZM347.5,545.05,248.83,658.37l107,81.87Z"/><path class="cls-10" d="M355.9,741.28l-8.43-196.92a.86.86,0,0,1,.22-.68c.13-.11.28,0,.3.24l24.11,153a1,1,0,0,1-.06.55l-15.67,43.92c-.07.2-.19.32-.29.3a.28.28,0,0,1-.14-.16A.82.82,0,0,1,355.9,741.28Zm-7.67-192,8.15,190.41,15.16-42.46Z"/><path class="cls-10" d="M547.84,434.25l-27.63-277a1,1,0,0,1,.12-.64c.11-.16.23-.19.32-.08L681.76,366.7a.75.75,0,0,1,.08.57.62.62,0,0,1-.24.47L548.11,434.58c-.09,0-.18,0-.23-.13A.59.59,0,0,1,547.84,434.25Zm-27-275.92,27.45,275L680.88,367Z"/><path class="cls-10" d="M229.07,708.67a1.1,1.1,0,0,1,.07-.53L248,658.24c.08-.23.22-.33.34-.24l108,82.59c.13.09.17.38.11.66s-.2.46-.33.43L229.25,709c-.06,0-.1-.06-.14-.14S229.08,708.74,229.07,708.67Zm19.17-49.46L229.82,708l123.94,31.95Z"/><path class="cls-10" d="M262.19,917.31,229.08,708.7a1,1,0,0,1,.07-.59c.07-.17.18-.27.27-.23l126.83,32.69c.1,0,.17.16.19.36a1.11,1.11,0,0,1-.12.57L262.61,917.42c-.07.14-.17.21-.25.19a.25.25,0,0,1-.13-.15A.54.54,0,0,1,262.19,917.31Zm-32.44-208.2,32.85,207,93-174.54Z"/><path class="cls-10" d="M178.3,987.56a.85.85,0,0,1,.22-.59l83.88-70.44c.12-.1.23,0,.29.16a1.1,1.1,0,0,1-.06.69l-36.31,82.7c-.08.17-.18.26-.28.23L178.48,988a.23.23,0,0,1-.13-.14A.87.87,0,0,1,178.3,987.56Zm83.25-69.19-81.94,68.8,46.46,12Z"/><path class="cls-10" d="M371.58,697.47l-24.11-153a1.11,1.11,0,0,1,.11-.65c.09-.18.22-.24.31-.14L477.82,672.12a.74.74,0,0,1,.09.6c0,.26-.15.45-.28.48L371.81,697.76a.18.18,0,0,1-.19-.14A.66.66,0,0,1,371.58,697.47ZM348.22,545.34,372.05,696.6l104.61-24.28Z"/><path class="cls-10" d="M145.39,1078.57a1.1,1.1,0,0,1,.06-.54l32.92-90.81a.48.48,0,0,1,.21-.3c.08,0,.16,0,.21.14l44.54,100.16h0a1,1,0,0,1,0,.63c-.06.23-.18.36-.29.35l-77.46-9.34q-.09,0-.15-.15S145.4,1078.62,145.39,1078.57Zm33.17-90.21-32.42,89.42,76.27,9.21Z"/><path class="cls-10" d="M178.35,987.26c.07-.23.2-.37.31-.33l47.56,12.27c.12,0,.19.23.18.47l-3,87.89a1.05,1.05,0,0,1-.19.58c-.11.11-.23.08-.3-.08L178.35,987.91h0A1,1,0,0,1,178.35,987.26Zm47.5,13-46.53-12,43.57,98Z"/><path class="cls-10" d="M93.79,1300.79l51.62-222.64a.68.68,0,0,1,.2-.38.16.16,0,0,1,.24.06l74.87,125.42a.74.74,0,0,1,.06.53.76.76,0,0,1-.21.46L94.08,1301.46c-.1.08-.21,0-.27-.11h0A1,1,0,0,1,93.79,1300.79Zm51.93-221.59L94.52,1300,220,1203.59Z"/><path class="cls-10" d="M145.42,1078.12c.06-.24.19-.4.3-.38l77.46,9.34c.12,0,.2.21.2.47l-2.58,116.07a1,1,0,0,1-.18.57.16.16,0,0,1-.29,0l-74.88-125.42s0,0,0,0A1,1,0,0,1,145.42,1078.12Zm77.41,10.06-76.3-9.21,73.75,123.55Z"/><path class="cls-10" d="M262.18,917.14a1,1,0,0,1,.11-.47L356,740.74c.08-.14.18-.21.27-.17a.44.44,0,0,1,.15.38l16.27,317.66a1.17,1.17,0,0,1-.14.61c-.1.15-.22.17-.31.06l-110-141.74,0-.08A.62.62,0,0,1,262.18,917.14Zm93.76-174.93L262.89,916.89l109.2,140.73Z"/><path class="cls-10" d="M372.16,1059,355.89,741.3a1.32,1.32,0,0,1,.12-.57c.09-.15.19-.2.28-.15L441,794.41a.39.39,0,0,1,.14.28,1.12,1.12,0,0,1,0,.44L372.67,1059c-.07.23-.18.39-.3.39s-.12,0-.16-.15A.57.57,0,0,1,372.16,1059ZM356.49,742l16.13,315,67.85-261.66Z"/><path class="cls-10" d="M355.9,741.34a1,1,0,0,1,.06-.48l15.67-43.92a.53.53,0,0,1,.19-.28.15.15,0,0,1,.2.05l69,97.76a1,1,0,0,1,0,.7c-.08.26-.23.4-.35.32L356,741.66a.28.28,0,0,1-.1-.13A.49.49,0,0,1,355.9,741.34Zm16-43.36-15.27,42.8,82.5,52.44Z"/><path class="cls-10" d="M371.59,697.09c.05-.24.16-.42.28-.45l105.82-24.56c.09,0,.17.06.22.22a1.15,1.15,0,0,1,0,.55L441.07,795.17a.61.61,0,0,1-.2.32.14.14,0,0,1-.21,0l-69-97.75a.25.25,0,0,1,0-.07A.93.93,0,0,1,371.59,697.09Zm105.58-23.78L372.62,697.57l68.18,96.58Z"/><path class="cls-10" d="M222.84,1087.72l3-87.88a1,1,0,0,1,.09-.41l36.32-82.71c.09-.22.24-.3.35-.18a.85.85,0,0,1,.07.66l-39.34,170.59c-.06.26-.19.43-.31.41s-.12-.06-.15-.14A.7.7,0,0,1,222.84,1087.72Zm3.56-87.82-2.93,85,38-165Z"/><path class="cls-10" d="M222.87,1088a1.1,1.1,0,0,1,0-.51L262.21,916.9a.76.76,0,0,1,.19-.37.15.15,0,0,1,.23,0l110,141.74a.78.78,0,0,1,.07.6c-.05.25-.16.42-.28.45L223.08,1088.2c-.08,0-.15,0-.19-.14A.14.14,0,0,1,222.87,1088Zm39.66-170.12-39,169.13,148-28.61Z"/><path class="cls-10" d="M477.4,672.93a1.23,1.23,0,0,1,0-.5l70.44-238.61c.06-.21.17-.34.27-.35s.2.11.22.32l31.71,259.64a1.24,1.24,0,0,1-.08.57c-.07.16-.18.25-.27.23l-102.16-21a.25.25,0,0,1-.13-.15A.34.34,0,0,1,477.4,672.93ZM548,435.42,478.09,672.15,579.44,693Z"/><path class="cls-10" d="M220.25,1203.81l2.59-116.07a1.23,1.23,0,0,1,.09-.44.41.41,0,0,1,.21-.22l149.32-28.86c.13,0,.23.16.24.41a1,1,0,0,1-.2.66L220.59,1204.22a.14.14,0,0,1-.23,0l-.06-.09A.93.93,0,0,1,220.25,1203.81Zm3.12-115.66-2.56,114.72L371,1059.62Z"/><path class="cls-10" d="M220.26,1203.74a.86.86,0,0,1,.2-.53l151.9-144.92c.1-.1.21-.08.28,0a1,1,0,0,1,0,.56l-47.55,239.19a.84.84,0,0,1-.18.38.15.15,0,0,1-.23,0l-104.35-94.25a.63.63,0,0,1-.07-.12A1.08,1.08,0,0,1,220.26,1203.74ZM372,1059.8,221.19,1203.65l103.56,93.57Z"/><path class="cls-10" d="M440.62,794.73l36.82-122.31c.06-.19.16-.34.26-.33s.19.09.22.27L514,894.86a1.08,1.08,0,0,1-.11.67c-.1.18-.24.21-.33.09L440.66,795.44a.43.43,0,0,1,0-.07A1.15,1.15,0,0,1,440.62,794.73Zm36.94-120.81L441.21,794.71l72,98.94Z"/><path class="cls-10" d="M513.46,895.41,477.4,672.91a1.15,1.15,0,0,1,.07-.58c.07-.18.18-.27.27-.25l102.16,21c.08,0,.15.12.17.29a1.16,1.16,0,0,1,0,.52l-66.1,201.45c-.07.2-.16.31-.27.32s-.13,0-.17-.14A.58.58,0,0,1,513.46,895.41ZM478.07,673.3l35.75,220.61,65.54-199.75Z"/><path class="cls-10" d="M372.2,1058.61l68.41-263.83a.61.61,0,0,1,.19-.35.16.16,0,0,1,.23,0L513.9,894.64a.87.87,0,0,1,.08.48.93.93,0,0,1-.17.48L372.52,1059.26c-.11.13-.23.12-.3,0v0A1,1,0,0,1,372.2,1058.61Zm68.71-262.83L373,1057.49,513.19,895.15Z"/><path class="cls-10" d="M372.16,1059a1,1,0,0,1,.18-.7L513.62,894.66c.12-.14.25-.11.32.06v0l23.95,71.1a1,1,0,0,1,0,.53.6.6,0,0,1-.22.39l-165.23,92.56c-.1.05-.19,0-.24-.13A.64.64,0,0,1,372.16,1059ZM513.6,895.85,374.32,1057.18,537.2,965.93Z"/><path class="cls-10" d="M537.43,966.61l-23.95-71.1a1,1,0,0,1,0-.62l66.1-201.46c.08-.25.22-.37.34-.3a.67.67,0,0,1,.13.61L537.92,966.29a.68.68,0,0,1-.23.47c-.09.06-.19,0-.25-.12S537.43,966.63,537.43,966.61ZM514,895,537.59,965l41.45-268Z"/><path class="cls-10" d="M324.62,1297.87l47.56-239.2a.62.62,0,0,1,.23-.42l165.24-92.57c.12-.06.24,0,.27.28a1.09,1.09,0,0,1-.12.68L325,1298.4c-.11.16-.23.19-.32.06a.24.24,0,0,1,0-.07A1,1,0,0,1,324.62,1297.87Zm48-238.64-47.16,237.22,211-329Z"/><path class="cls-10" d="M537.41,966.16l42.14-272.55a1,1,0,0,1,.16-.41c.08-.09.16-.11.23-.06L685,761.87a.52.52,0,0,1,.14.44,1,1,0,0,1-.15.55L537.78,966.68c-.1.13-.22.15-.3,0l0-.08A.91.91,0,0,1,537.41,966.16ZM580,694.4,538.12,965,684.27,762.64Z"/><path class="cls-10" d="M342.27,123.32c-2.77,5.19-3.42,13.22-1.45,18s5.81,4.35,8.57-.84,3.41-13.22,1.44-18S345,118.13,342.27,123.32Z"/><path class="cls-10" d="M417.27,113.1c-2.76,5.19-3.41,13.22-1.44,18s5.8,4.36,8.57-.84,3.4-13.22,1.44-17.94S420,107.91,417.27,113.1Z"/><path class="cls-10" d="M296.27,393.42c-2.77,5.2-3.41,13.22-1.44,17.95s5.8,4.35,8.56-.84,3.41-13.22,1.45-17.94S299,388.23,296.27,393.42Z"/><path class="cls-10" d="M342.27,123.32c-2.77,5.19-3.42,13.22-1.45,18s5.81,4.35,8.57-.84,3.41-13.22,1.44-18S345,118.13,342.27,123.32Z"/><path class="cls-10" d="M179.73,249.52c-2.76,5.19-3.41,13.23-1.44,18s5.8,4.35,8.57-.84,3.41-13.22,1.44-17.95S182.5,244.34,179.73,249.52Z"/><path class="cls-10" d="M142.52,561.14c-2.77,5.2-3.41,13.23-1.44,18s5.8,4.36,8.57-.84,3.4-13.22,1.44-17.94S145.29,556,142.52,561.14Z"/><path class="cls-10" d="M296.27,393.42c-2.77,5.2-3.41,13.22-1.44,17.95s5.8,4.35,8.56-.84,3.41-13.22,1.45-17.94S299,388.23,296.27,393.42Z"/><path class="cls-10" d="M179.73,249.52c-2.76,5.19-3.41,13.23-1.44,18s5.8,4.35,8.57-.84,3.41-13.22,1.44-17.95S182.5,244.34,179.73,249.52Z"/><path class="cls-10" d="M417.27,113.1c-2.76,5.19-3.41,13.22-1.44,18s5.8,4.36,8.57-.84,3.4-13.22,1.44-17.94S420,107.91,417.27,113.1Z"/><path class="cls-10" d="M429.72,109.07c-2.76,5.18-3.41,13.21-1.44,17.93s5.81,4.36,8.57-.83,3.41-13.23,1.44-18S432.49,103.87,429.72,109.07Z"/><path class="cls-10" d="M3.45,798.06C.69,803.25,0,811.28,2,816s5.8,4.34,8.56-.84S14,802,12,797.22,6.21,792.87,3.45,798.06Z"/><path class="cls-10" d="M3.45,798.06C.69,803.25,0,811.28,2,816s5.8,4.34,8.56-.84S14,802,12,797.22,6.21,792.87,3.45,798.06Z"/><path class="cls-10" d="M-4.17,691.44c-2.76,5.18-3.4,13.23-1.43,17.95s5.8,4.35,8.56-.83,3.41-13.23,1.44-17.95S-1.4,686.26-4.17,691.44Z"/><path class="cls-10" d="M3.45,798.06C.69,803.25,0,811.28,2,816s5.8,4.34,8.56-.84S14,802,12,797.22,6.21,792.87,3.45,798.06Z"/><path class="cls-10" d="M15.09,703.65c-2.77,5.19-3.41,13.23-1.44,18s5.8,4.35,8.57-.84,3.41-13.23,1.44-17.95S17.85,698.47,15.09,703.65Z"/><path class="cls-10" d="M-4.17,691.44c-2.76,5.18-3.4,13.23-1.43,17.95s5.8,4.35,8.56-.83,3.41-13.23,1.44-17.95S-1.4,686.26-4.17,691.44Z"/><path class="cls-10" d="M296.27,393.42c-2.77,5.2-3.41,13.22-1.44,17.95s5.8,4.35,8.56-.84,3.41-13.22,1.45-17.94S299,388.23,296.27,393.42Z"/><path class="cls-10" d="M349.31,371.24c-2.77,5.2-3.42,13.23-1.45,17.95s5.81,4.36,8.57-.83,3.41-13.23,1.44-17.95S352.07,366.06,349.31,371.24Z"/><path class="cls-10" d="M342.27,123.32c-2.77,5.19-3.42,13.22-1.45,18s5.81,4.35,8.57-.84,3.41-13.22,1.44-18S345,118.13,342.27,123.32Z"/><path class="cls-10" d="M3.45,798.06C.69,803.25,0,811.28,2,816s5.8,4.34,8.56-.84S14,802,12,797.22,6.21,792.87,3.45,798.06Z"/><path class="cls-10" d="M142.52,561.14c-2.77,5.2-3.41,13.23-1.44,18s5.8,4.36,8.57-.84,3.4-13.22,1.44-17.94S145.29,556,142.52,561.14Z"/><path class="cls-10" d="M15.09,703.65c-2.77,5.19-3.41,13.23-1.44,18s5.8,4.35,8.57-.84,3.41-13.23,1.44-17.95S17.85,698.47,15.09,703.65Z"/><path class="cls-10" d="M429.72,109.07c-2.76,5.18-3.41,13.21-1.44,17.93s5.81,4.36,8.57-.83,3.41-13.23,1.44-18S432.49,103.87,429.72,109.07Z"/><path class="cls-10" d="M244.62,650c-2.76,5.2-3.4,13.22-1.44,17.95s5.8,4.36,8.57-.84,3.41-13.22,1.44-18S247.38,644.79,244.62,650Z"/><path class="cls-10" d="M296.27,393.42c-2.77,5.2-3.41,13.22-1.44,17.95s5.8,4.35,8.56-.84,3.41-13.22,1.45-17.94S299,388.23,296.27,393.42Z"/><path class="cls-10" d="M142.52,561.14c-2.77,5.2-3.41,13.23-1.44,18s5.8,4.36,8.57-.84,3.4-13.22,1.44-17.94S145.29,556,142.52,561.14Z"/><path class="cls-10" d="M225.77,699.87c-2.76,5.18-3.41,13.21-1.44,18s5.81,4.34,8.57-.84,3.4-13.23,1.44-17.94S228.53,694.67,225.77,699.87Z"/><path class="cls-10" d="M142.52,561.14c-2.77,5.2-3.41,13.23-1.44,18s5.8,4.36,8.57-.84,3.4-13.22,1.44-17.94S145.29,556,142.52,561.14Z"/><path class="cls-10" d="M3.45,798.06C.69,803.25,0,811.28,2,816s5.8,4.34,8.56-.84S14,802,12,797.22,6.21,792.87,3.45,798.06Z"/><path class="cls-10" d="M175,978.92c-2.77,5.19-3.41,13.23-1.44,18s5.8,4.35,8.56-.83,3.41-13.23,1.45-18S177.77,973.73,175,978.92Z"/><path class="cls-10" d="M225.77,699.87c-2.76,5.18-3.41,13.21-1.44,18s5.81,4.34,8.57-.84,3.4-13.23,1.44-17.94S228.53,694.67,225.77,699.87Z"/><path class="cls-10" d="M3.45,798.06C.69,803.25,0,811.28,2,816s5.8,4.34,8.56-.84S14,802,12,797.22,6.21,792.87,3.45,798.06Z"/><path class="cls-10" d="M311,394.82c-2.76,5.18-3.41,13.21-1.44,17.94s5.8,4.36,8.57-.83,3.4-13.23,1.44-17.95S313.76,389.62,311,394.82Z"/><path class="cls-10" d="M349.31,371.24c-2.77,5.2-3.42,13.23-1.45,17.95s5.81,4.36,8.57-.83,3.41-13.23,1.44-17.95S352.07,366.06,349.31,371.24Z"/><path class="cls-10" d="M296.27,393.42c-2.77,5.2-3.41,13.22-1.44,17.95s5.8,4.35,8.56-.84,3.41-13.22,1.45-17.94S299,388.23,296.27,393.42Z"/><path class="cls-10" d="M349.31,371.24c-2.77,5.2-3.42,13.23-1.45,17.95s5.81,4.36,8.57-.83,3.41-13.23,1.44-17.95S352.07,366.06,349.31,371.24Z"/><path class="cls-10" d="M417.27,113.1c-2.76,5.19-3.41,13.22-1.44,18s5.8,4.36,8.57-.84,3.4-13.22,1.44-17.94S420,107.91,417.27,113.1Z"/><path class="cls-10" d="M342.27,123.32c-2.77,5.19-3.42,13.22-1.45,18s5.81,4.35,8.57-.84,3.41-13.22,1.44-18S345,118.13,342.27,123.32Z"/><path class="cls-10" d="M142.09,1069.73c-2.76,5.19-3.41,13.23-1.44,18s5.8,4.35,8.57-.83,3.4-13.22,1.44-17.95S144.85,1064.55,142.09,1069.73Z"/><path class="cls-10" d="M3.45,798.06C.69,803.25,0,811.28,2,816s5.8,4.34,8.56-.84S14,802,12,797.22,6.21,792.87,3.45,798.06Z"/><path class="cls-10" d="M142.09,1069.73c-2.76,5.19-3.41,13.23-1.44,18s5.8,4.35,8.57-.83,3.4-13.22,1.44-17.95S144.85,1064.55,142.09,1069.73Z"/><path class="cls-10" d="M175,978.92c-2.77,5.19-3.41,13.23-1.44,18s5.8,4.35,8.56-.83,3.41-13.23,1.45-18S177.77,973.73,175,978.92Z"/><path class="cls-10" d="M3.45,798.06C.69,803.25,0,811.28,2,816s5.8,4.34,8.56-.84S14,802,12,797.22,6.21,792.87,3.45,798.06Z"/><path class="cls-10" d="M516.91,148.5c-2.77,5.19-3.41,13.22-1.44,17.95s5.8,4.35,8.56-.84,3.41-13.22,1.45-18S519.67,143.31,516.91,148.5Z"/><path class="cls-10" d="M429.72,109.07c-2.76,5.18-3.41,13.21-1.44,17.93s5.81,4.36,8.57-.83,3.41-13.23,1.44-18S432.49,103.87,429.72,109.07Z"/><path class="cls-10" d="M225.77,699.87c-2.76,5.18-3.41,13.21-1.44,18s5.81,4.34,8.57-.84,3.4-13.23,1.44-17.94S228.53,694.67,225.77,699.87Z"/><path class="cls-10" d="M244.62,650c-2.76,5.2-3.4,13.22-1.44,17.95s5.8,4.36,8.57-.84,3.41-13.22,1.44-18S247.38,644.79,244.62,650Z"/><path class="cls-10" d="M142.52,561.14c-2.77,5.2-3.41,13.23-1.44,18s5.8,4.36,8.57-.84,3.4-13.22,1.44-17.94S145.29,556,142.52,561.14Z"/><path class="cls-10" d="M349.31,371.24c-2.77,5.2-3.42,13.23-1.45,17.95s5.81,4.36,8.57-.83,3.41-13.23,1.44-17.95S352.07,366.06,349.31,371.24Z"/><path class="cls-10" d="M429.72,109.07c-2.76,5.18-3.41,13.21-1.44,17.93s5.81,4.36,8.57-.83,3.41-13.23,1.44-18S432.49,103.87,429.72,109.07Z"/><path class="cls-10" d="M417.27,113.1c-2.76,5.19-3.41,13.22-1.44,18s5.8,4.36,8.57-.84,3.4-13.22,1.44-17.94S420,107.91,417.27,113.1Z"/><path class="cls-10" d="M244.62,650c-2.76,5.2-3.4,13.22-1.44,17.95s5.8,4.36,8.57-.84,3.41-13.22,1.44-18S247.38,644.79,244.62,650Z"/><path class="cls-10" d="M344.18,535.64c-2.77,5.19-3.42,13.22-1.45,18s5.81,4.34,8.57-.84,3.41-13.23,1.44-18S346.94,530.45,344.18,535.64Z"/><path class="cls-10" d="M311,394.82c-2.76,5.18-3.41,13.21-1.44,17.94s5.8,4.36,8.57-.83,3.4-13.23,1.44-17.95S313.76,389.62,311,394.82Z"/><path class="cls-10" d="M244.62,650c-2.76,5.2-3.4,13.22-1.44,17.95s5.8,4.36,8.57-.84,3.41-13.22,1.44-18S247.38,644.79,244.62,650Z"/><path class="cls-10" d="M311,394.82c-2.76,5.18-3.41,13.21-1.44,17.94s5.8,4.36,8.57-.83,3.4-13.23,1.44-17.95S313.76,389.62,311,394.82Z"/><path class="cls-10" d="M296.27,393.42c-2.77,5.2-3.41,13.22-1.44,17.95s5.8,4.35,8.56-.84,3.41-13.22,1.45-17.94S299,388.23,296.27,393.42Z"/><path class="cls-10" d="M142.09,1069.73c-2.76,5.19-3.41,13.23-1.44,18s5.8,4.35,8.57-.83,3.4-13.22,1.44-17.95S144.85,1064.55,142.09,1069.73Z"/><path class="cls-10" d="M349.31,371.24c-2.77,5.2-3.42,13.23-1.45,17.95s5.81,4.36,8.57-.83,3.41-13.23,1.44-17.95S352.07,366.06,349.31,371.24Z"/><path class="cls-10" d="M516.91,148.5c-2.77,5.19-3.41,13.22-1.44,17.95s5.8,4.35,8.56-.84,3.41-13.22,1.45-18S519.67,143.31,516.91,148.5Z"/><path class="cls-10" d="M429.72,109.07c-2.76,5.18-3.41,13.21-1.44,17.93s5.81,4.36,8.57-.83,3.41-13.23,1.44-18S432.49,103.87,429.72,109.07Z"/><path class="cls-10" d="M516.91,148.5c-2.77,5.19-3.41,13.22-1.44,17.95s5.8,4.35,8.56-.84,3.41-13.22,1.45-18S519.67,143.31,516.91,148.5Z"/><path class="cls-10" d="M349.31,371.24c-2.77,5.2-3.42,13.23-1.45,17.95s5.81,4.36,8.57-.83,3.41-13.23,1.44-17.95S352.07,366.06,349.31,371.24Z"/><path class="cls-10" d="M344.18,535.64c-2.77,5.19-3.42,13.22-1.45,18s5.81,4.34,8.57-.84,3.41-13.23,1.44-18S346.94,530.45,344.18,535.64Z"/><path class="cls-10" d="M349.31,371.24c-2.77,5.2-3.42,13.23-1.45,17.95s5.81,4.36,8.57-.83,3.41-13.23,1.44-17.95S352.07,366.06,349.31,371.24Z"/><path class="cls-10" d="M311,394.82c-2.76,5.18-3.41,13.21-1.44,17.94s5.8,4.36,8.57-.83,3.4-13.23,1.44-17.95S313.76,389.62,311,394.82Z"/><path class="cls-10" d="M344.18,535.64c-2.77,5.19-3.42,13.22-1.45,18s5.81,4.34,8.57-.84,3.41-13.23,1.44-18S346.94,530.45,344.18,535.64Z"/><path class="cls-10" d="M349.31,371.24c-2.77,5.2-3.42,13.23-1.45,17.95s5.81,4.36,8.57-.83,3.41-13.23,1.44-17.95S352.07,366.06,349.31,371.24Z"/><path class="cls-10" d="M474.1,664.08c-2.77,5.19-3.41,13.22-1.45,17.95s5.81,4.35,8.57-.84,3.41-13.22,1.44-18S476.86,658.89,474.1,664.08Z"/><path class="cls-10" d="M344.18,535.64c-2.77,5.19-3.42,13.22-1.45,18s5.81,4.34,8.57-.84,3.41-13.23,1.44-18S346.94,530.45,344.18,535.64Z"/><path class="cls-10" d="M175,978.92c-2.77,5.19-3.41,13.23-1.44,18s5.8,4.35,8.56-.83,3.41-13.23,1.45-18S177.77,973.73,175,978.92Z"/><path class="cls-10" d="M258.89,908.49c-2.77,5.19-3.41,13.22-1.44,18s5.8,4.36,8.56-.83,3.41-13.24,1.44-18S261.65,903.3,258.89,908.49Z"/><path class="cls-10" d="M225.77,699.87c-2.76,5.18-3.41,13.21-1.44,18s5.81,4.34,8.57-.84,3.4-13.23,1.44-17.94S228.53,694.67,225.77,699.87Z"/><path class="cls-10" d="M516.91,148.5c-2.77,5.19-3.41,13.22-1.44,17.95s5.8,4.35,8.56-.84,3.41-13.22,1.45-18S519.67,143.31,516.91,148.5Z"/><path class="cls-10" d="M516.91,148.5c-2.77,5.19-3.41,13.22-1.44,17.95s5.8,4.35,8.56-.84,3.41-13.22,1.45-18S519.67,143.31,516.91,148.5Z"/><path class="cls-10" d="M352.6,732.56c-2.77,5.2-3.41,13.23-1.44,18s5.8,4.36,8.57-.84,3.41-13.23,1.44-18S355.37,727.38,352.6,732.56Z"/><path class="cls-10" d="M344.18,535.64c-2.77,5.19-3.42,13.22-1.45,18s5.81,4.34,8.57-.84,3.41-13.23,1.44-18S346.94,530.45,344.18,535.64Z"/><path class="cls-10" d="M244.62,650c-2.76,5.2-3.4,13.22-1.44,17.95s5.8,4.36,8.57-.84,3.41-13.22,1.44-18S247.38,644.79,244.62,650Z"/><path class="cls-10" d="M352.6,732.56c-2.77,5.2-3.41,13.23-1.44,18s5.8,4.36,8.57-.84,3.41-13.23,1.44-18S355.37,727.38,352.6,732.56Z"/><path class="cls-10" d="M368.27,688.65c-2.76,5.18-3.4,13.22-1.44,17.94s5.81,4.36,8.57-.83,3.41-13.22,1.44-18S371,683.46,368.27,688.65Z"/><path class="cls-10" d="M344.18,535.64c-2.77,5.19-3.42,13.22-1.45,18s5.81,4.34,8.57-.84,3.41-13.23,1.44-18S346.94,530.45,344.18,535.64Z"/><path class="cls-10" d="M516.91,148.5c-2.77,5.19-3.41,13.22-1.44,17.95s5.8,4.35,8.56-.84,3.41-13.22,1.45-18S519.67,143.31,516.91,148.5Z"/><path class="cls-10" d="M225.77,699.87c-2.76,5.18-3.41,13.21-1.44,18s5.81,4.34,8.57-.84,3.4-13.23,1.44-17.94S228.53,694.67,225.77,699.87Z"/><path class="cls-10" d="M352.6,732.56c-2.77,5.2-3.41,13.23-1.44,18s5.8,4.36,8.57-.84,3.41-13.23,1.44-18S355.37,727.38,352.6,732.56Z"/><path class="cls-10" d="M244.62,650c-2.76,5.2-3.4,13.22-1.44,17.95s5.8,4.36,8.57-.84,3.41-13.22,1.44-18S247.38,644.79,244.62,650Z"/><path class="cls-10" d="M258.89,908.49c-2.77,5.19-3.41,13.22-1.44,18s5.8,4.36,8.56-.83,3.41-13.24,1.44-18S261.65,903.3,258.89,908.49Z"/><path class="cls-10" d="M352.6,732.56c-2.77,5.2-3.41,13.23-1.44,18s5.8,4.36,8.57-.84,3.41-13.23,1.44-18S355.37,727.38,352.6,732.56Z"/><path class="cls-10" d="M225.77,699.87c-2.76,5.18-3.41,13.21-1.44,18s5.81,4.34,8.57-.84,3.4-13.23,1.44-17.94S228.53,694.67,225.77,699.87Z"/><path class="cls-10" d="M222.57,991.19c-2.77,5.2-3.41,13.23-1.44,18s5.8,4.35,8.57-.84,3.4-13.22,1.44-17.95S225.34,986,222.57,991.19Z"/><path class="cls-10" d="M258.89,908.49c-2.77,5.19-3.41,13.22-1.44,18s5.8,4.36,8.56-.83,3.41-13.24,1.44-18S261.65,903.3,258.89,908.49Z"/><path class="cls-10" d="M175,978.92c-2.77,5.19-3.41,13.23-1.44,18s5.8,4.35,8.56-.83,3.41-13.23,1.45-18S177.77,973.73,175,978.92Z"/><path class="cls-10" d="M368.27,688.65c-2.76,5.18-3.4,13.22-1.44,17.94s5.81,4.36,8.57-.83,3.41-13.22,1.44-18S371,683.46,368.27,688.65Z"/><path class="cls-10" d="M474.1,664.08c-2.77,5.19-3.41,13.22-1.45,17.95s5.81,4.35,8.57-.84,3.41-13.22,1.44-18S476.86,658.89,474.1,664.08Z"/><path class="cls-10" d="M344.18,535.64c-2.77,5.19-3.42,13.22-1.45,18s5.81,4.34,8.57-.84,3.41-13.23,1.44-18S346.94,530.45,344.18,535.64Z"/><path class="cls-10" d="M142.09,1069.73c-2.76,5.19-3.41,13.23-1.44,18s5.8,4.35,8.57-.83,3.4-13.22,1.44-17.95S144.85,1064.55,142.09,1069.73Z"/><path class="cls-10" d="M219.55,1079.09c-2.76,5.19-3.41,13.22-1.44,17.94s5.8,4.36,8.56-.83,3.41-13.23,1.44-18S222.31,1073.91,219.55,1079.09Z"/><path class="cls-10" d="M175,978.92c-2.77,5.19-3.41,13.23-1.44,18s5.8,4.35,8.56-.83,3.41-13.23,1.45-18S177.77,973.73,175,978.92Z"/><path class="cls-10" d="M219.55,1079.09c-2.76,5.19-3.41,13.22-1.44,17.94s5.8,4.36,8.56-.83,3.41-13.23,1.44-18S222.31,1073.91,219.55,1079.09Z"/><path class="cls-10" d="M222.57,991.19c-2.77,5.2-3.41,13.23-1.44,18s5.8,4.35,8.57-.84,3.4-13.22,1.44-17.95S225.34,986,222.57,991.19Z"/><path class="cls-10" d="M175,978.92c-2.77,5.19-3.41,13.23-1.44,18s5.8,4.35,8.56-.83,3.41-13.23,1.45-18S177.77,973.73,175,978.92Z"/><path class="cls-10" d="M142.09,1069.73c-2.76,5.19-3.41,13.23-1.44,18s5.8,4.35,8.57-.83,3.4-13.22,1.44-17.95S144.85,1064.55,142.09,1069.73Z"/><path class="cls-10" d="M219.55,1079.09c-2.76,5.19-3.41,13.22-1.44,17.94s5.8,4.36,8.56-.83,3.41-13.23,1.44-18S222.31,1073.91,219.55,1079.09Z"/><path class="cls-10" d="M142.09,1069.73c-2.76,5.19-3.41,13.23-1.44,18s5.8,4.35,8.57-.83,3.4-13.22,1.44-17.95S144.85,1064.55,142.09,1069.73Z"/><path class="cls-10" d="M258.89,908.49c-2.77,5.19-3.41,13.22-1.44,18s5.8,4.36,8.56-.83,3.41-13.24,1.44-18S261.65,903.3,258.89,908.49Z"/><path class="cls-10" d="M368.87,1050.23c-2.77,5.19-3.41,13.22-1.45,18s5.81,4.35,8.57-.84,3.41-13.22,1.44-17.95S371.63,1045,368.87,1050.23Z"/><path class="cls-10" d="M352.6,732.56c-2.77,5.2-3.41,13.23-1.44,18s5.8,4.36,8.57-.84,3.41-13.23,1.44-18S355.37,727.38,352.6,732.56Z"/><path class="cls-10" d="M368.87,1050.23c-2.77,5.19-3.41,13.22-1.45,18s5.81,4.35,8.57-.84,3.41-13.22,1.44-17.95S371.63,1045,368.87,1050.23Z"/><path class="cls-10" d="M437.28,786.4c-2.76,5.19-3.41,13.22-1.44,18s5.8,4.35,8.57-.84,3.4-13.23,1.44-18S440.05,781.2,437.28,786.4Z"/><path class="cls-10" d="M352.6,732.56c-2.77,5.2-3.41,13.23-1.44,18s5.8,4.36,8.57-.84,3.41-13.23,1.44-18S355.37,727.38,352.6,732.56Z"/><path class="cls-10" d="M352.6,732.56c-2.77,5.2-3.41,13.23-1.44,18s5.8,4.36,8.57-.84,3.41-13.23,1.44-18S355.37,727.38,352.6,732.56Z"/><path class="cls-10" d="M437.28,786.4c-2.76,5.19-3.41,13.22-1.44,18s5.8,4.35,8.57-.84,3.4-13.23,1.44-18S440.05,781.2,437.28,786.4Z"/><path class="cls-10" d="M368.27,688.65c-2.76,5.18-3.4,13.22-1.44,17.94s5.81,4.36,8.57-.83,3.41-13.22,1.44-18S371,683.46,368.27,688.65Z"/><path class="cls-10" d="M437.28,786.4c-2.76,5.19-3.41,13.22-1.44,18s5.8,4.35,8.57-.84,3.4-13.23,1.44-18S440.05,781.2,437.28,786.4Z"/><path class="cls-10" d="M474.1,664.08c-2.77,5.19-3.41,13.22-1.45,17.95s5.81,4.35,8.57-.84,3.41-13.22,1.44-18S476.86,658.89,474.1,664.08Z"/><path class="cls-10" d="M368.27,688.65c-2.76,5.18-3.4,13.22-1.44,17.94s5.81,4.36,8.57-.83,3.41-13.22,1.44-18S371,683.46,368.27,688.65Z"/><path class="cls-10" d="M222.57,991.19c-2.77,5.2-3.41,13.23-1.44,18s5.8,4.35,8.57-.84,3.4-13.22,1.44-17.95S225.34,986,222.57,991.19Z"/><path class="cls-10" d="M219.55,1079.09c-2.76,5.19-3.41,13.22-1.44,17.94s5.8,4.36,8.56-.83,3.41-13.23,1.44-18S222.31,1073.91,219.55,1079.09Z"/><path class="cls-10" d="M258.89,908.49c-2.77,5.19-3.41,13.22-1.44,18s5.8,4.36,8.56-.83,3.41-13.24,1.44-18S261.65,903.3,258.89,908.49Z"/><path class="cls-10" d="M219.55,1079.09c-2.76,5.19-3.41,13.22-1.44,17.94s5.8,4.36,8.56-.83,3.41-13.23,1.44-18S222.31,1073.91,219.55,1079.09Z"/><path class="cls-10" d="M368.87,1050.23c-2.77,5.19-3.41,13.22-1.45,18s5.81,4.35,8.57-.84,3.41-13.22,1.44-17.95S371.63,1045,368.87,1050.23Z"/><path class="cls-10" d="M258.89,908.49c-2.77,5.19-3.41,13.22-1.44,18s5.8,4.36,8.56-.83,3.41-13.24,1.44-18S261.65,903.3,258.89,908.49Z"/><path class="cls-10" d="M474.1,664.08c-2.77,5.19-3.41,13.22-1.45,17.95s5.81,4.35,8.57-.84,3.41-13.22,1.44-18S476.86,658.89,474.1,664.08Z"/><path class="cls-10" d="M368.87,1050.23c-2.77,5.19-3.41,13.22-1.45,18s5.81,4.35,8.57-.84,3.41-13.22,1.44-17.95S371.63,1045,368.87,1050.23Z"/><path class="cls-10" d="M219.55,1079.09c-2.76,5.19-3.41,13.22-1.44,17.94s5.8,4.36,8.56-.83,3.41-13.23,1.44-18S222.31,1073.91,219.55,1079.09Z"/><path class="cls-10" d="M368.87,1050.23c-2.77,5.19-3.41,13.22-1.45,18s5.81,4.35,8.57-.84,3.41-13.22,1.44-17.95S371.63,1045,368.87,1050.23Z"/><path class="cls-10" d="M437.28,786.4c-2.76,5.19-3.41,13.22-1.44,18s5.8,4.35,8.57-.84,3.4-13.23,1.44-18S440.05,781.2,437.28,786.4Z"/><path class="cls-10" d="M510.15,886.57c-2.77,5.2-3.41,13.22-1.44,17.95s5.8,4.36,8.57-.84,3.4-13.22,1.44-17.94S512.91,881.39,510.15,886.57Z"/><path class="cls-10" d="M474.1,664.08c-2.77,5.19-3.41,13.22-1.45,17.95s5.81,4.35,8.57-.84,3.41-13.22,1.44-18S476.86,658.89,474.1,664.08Z"/><path class="cls-10" d="M510.15,886.57c-2.77,5.2-3.41,13.22-1.44,17.95s5.8,4.36,8.57-.84,3.4-13.22,1.44-17.94S512.91,881.39,510.15,886.57Z"/><path class="cls-10" d="M474.1,664.08c-2.77,5.19-3.41,13.22-1.45,17.95s5.81,4.35,8.57-.84,3.41-13.22,1.44-18S476.86,658.89,474.1,664.08Z"/><path class="cls-10" d="M368.87,1050.23c-2.77,5.19-3.41,13.22-1.45,18s5.81,4.35,8.57-.84,3.41-13.22,1.44-17.95S371.63,1045,368.87,1050.23Z"/><path class="cls-10" d="M510.15,886.57c-2.77,5.2-3.41,13.22-1.44,17.95s5.8,4.36,8.57-.84,3.4-13.22,1.44-17.94S512.91,881.39,510.15,886.57Z"/><path class="cls-10" d="M437.28,786.4c-2.76,5.19-3.41,13.22-1.44,18s5.8,4.35,8.57-.84,3.4-13.23,1.44-18S440.05,781.2,437.28,786.4Z"/><path class="cls-10" d="M534.1,957.67c-2.76,5.19-3.41,13.22-1.44,18s5.8,4.35,8.57-.84,3.4-13.22,1.44-17.94S536.86,952.49,534.1,957.67Z"/><path class="cls-10" d="M510.15,886.57c-2.77,5.2-3.41,13.22-1.44,17.95s5.8,4.36,8.57-.84,3.4-13.22,1.44-17.94S512.91,881.39,510.15,886.57Z"/><path class="cls-10" d="M368.87,1050.23c-2.77,5.19-3.41,13.22-1.45,18s5.81,4.35,8.57-.84,3.41-13.22,1.44-17.95S371.63,1045,368.87,1050.23Z"/><path class="cls-10" d="M510.15,886.57c-2.77,5.2-3.41,13.22-1.44,17.95s5.8,4.36,8.57-.84,3.4-13.22,1.44-17.94S512.91,881.39,510.15,886.57Z"/><path class="cls-10" d="M534.1,957.67c-2.76,5.19-3.41,13.22-1.44,18s5.8,4.35,8.57-.84,3.4-13.22,1.44-17.94S536.86,952.49,534.1,957.67Z"/><path class="cls-10" d="M534.1,957.67c-2.76,5.19-3.41,13.22-1.44,18s5.8,4.35,8.57-.84,3.4-13.22,1.44-17.94S536.86,952.49,534.1,957.67Z"/><path class="cls-10" d="M368.87,1050.23c-2.77,5.19-3.41,13.22-1.45,18s5.81,4.35,8.57-.84,3.41-13.22,1.44-17.95S371.63,1045,368.87,1050.23Z"/><path class="cls-10" d="M534.1,957.67c-2.76,5.19-3.41,13.22-1.44,18s5.8,4.35,8.57-.84,3.4-13.22,1.44-17.94S536.86,952.49,534.1,957.67Z"/></g></g><path class="cls-11" d="M383.9,364.67a.93.93,0,0,1,.07-.59l58.94-118.24c.07-.15.18-.21.26-.15a.51.51,0,0,1,.11.45l-7.57,85a.72.72,0,0,1-.21.48l-51.36,33.24a.13.13,0,0,1-.2-.06A.5.5,0,0,1,383.9,364.67Zm58.8-117.21L384.92,363.4l50.36-32.6Z"/><path class="cls-11" d="M343.73,638a.91.91,0,0,1,0-.41l40.19-273.19c0-.23.14-.42.25-.44s.2.12.21.34l11.51,260.84a1,1,0,0,1-.06.42.33.33,0,0,1-.19.21l-51.7,12.35a.12.12,0,0,1-.15-.08S343.74,638,343.73,638ZM384,366.88,344.24,637l51.13-12.21Z"/><path class="cls-11" d="M519.41,182.76l-20.13-70.53a.91.91,0,0,1,0-.54l52.54-147c.07-.2.2-.3.3-.23a.61.61,0,0,1,.11.52L519.85,182.5a.6.6,0,0,1-.21.42c-.07,0-.14,0-.19-.07A.25.25,0,0,1,519.41,182.76Zm-19.64-70.9,19.8,69.37L551.44-32.69Z"/><path class="cls-11" d="M519.42,182.78a.68.68,0,0,1,0-.38L551.81-35.12a.61.61,0,0,1,.2-.42c.1-.05.2,0,.24.18L607.11,178a.87.87,0,0,1,0,.5c-.05.17-.15.27-.23.28l-87.27,4.14a.17.17,0,0,1-.13-.09ZM552.07-33.78,519.93,182l86.55-4.11Z"/><path class="cls-11" d="M260.61,889.42l35-163.75c.06-.24.18-.4.29-.38s.18.22.16.47L285.66,855a.83.83,0,0,1-.13.41l-24.6,34.47c-.09.13-.2.14-.27,0h0A.83.83,0,0,1,260.61,889.42Zm34.66-160.13-33.94,159,23.89-33.47Z"/><path class="cls-11" d="M383.89,364.35a.64.64,0,0,1,.2-.42l51.36-33.24c.1-.06.19,0,.23.15L485.76,501a.92.92,0,0,1-.06.63c-.09.18-.22.23-.3.11L384,364.82l0,0A.71.71,0,0,1,383.89,364.35Zm51.45-32.63-50.66,32.8,100.06,135Z"/><path class="cls-11" d="M395.39,625.38,383.88,364.54A.86.86,0,0,1,384,364c.09-.13.19-.15.26,0L485.71,500.84a.56.56,0,0,1,.08.39.91.91,0,0,1-.14.43l-89.92,124c-.07.09-.15.12-.22.07l-.06-.07A.7.7,0,0,1,395.39,625.38Zm-11-259.95,11.44,259,89.29-123.1Z"/><path class="cls-11" d="M435.24,331.16l7.58-85a.73.73,0,0,1,.15-.43c.08-.09.17-.1.23,0L473.45,285a.55.55,0,0,1,.08.41.88.88,0,0,1-.14.43l-37.83,45.7c-.08.09-.17.1-.23,0l0,0A.75.75,0,0,1,435.24,331.16Zm8-84.18-7.42,83.28,37.06-44.76Z"/><path class="cls-11" d="M485.34,501.59,435.27,331.46a.93.93,0,0,1,.06-.63c.1-.18.22-.22.31-.1l57.65,85.12a.7.7,0,0,1,.07.41l-7.57,85a.69.69,0,0,1-.2.47c-.08.06-.16,0-.21-.06A.25.25,0,0,1,485.34,501.59Zm-49-168.49,49.1,166.77,7.42-83.32Z"/><path class="cls-11" d="M179.49,1020.48,195.39,846a.86.86,0,0,1,.13-.41c.07-.08.15-.12.22-.07l65.2,43.5a.45.45,0,0,1,.13.36,1,1,0,0,1-.12.47l-81.11,130.94c-.08.12-.18.16-.26.08l0,0A.73.73,0,0,1,179.49,1020.48Zm16.3-173.79-15.74,172.69,80.3-129.62Z"/><path class="cls-11" d="M477,295.65a1,1,0,0,1,.05-.5L519.45,182.2c0-.15.14-.24.22-.24s.15.09.17.24L538,287a.9.9,0,0,1,0,.48.39.39,0,0,1-.21.26l-60.56,8.19a.15.15,0,0,1-.14-.09S477.05,295.7,477,295.65Zm42.49-112.23L477.73,294.85l59.74-8.09Z"/><path class="cls-11" d="M477.06,295.75l-4-9.93a1,1,0,0,1,0-.65l46.31-103c.1-.21.24-.26.33-.12a.91.91,0,0,1,0,.65L477.43,295.63a.4.4,0,0,1-.19.25c-.06,0-.12,0-.16-.09A.08.08,0,0,0,477.06,295.75Zm-3.44-10.35,3.66,9.21,39.29-104.73Z"/><path class="cls-11" d="M435.25,331.12a.63.63,0,0,1,.18-.41l41.78-35.77c.12-.1.25,0,.27.24l15.88,120.87a1,1,0,0,1-.11.57c-.09.15-.21.18-.29.06l-57.65-85.11v0A.8.8,0,0,1,435.25,331.12ZM477.08,296,436,331.22,492.7,415Z"/><path class="cls-11" d="M435.25,331.39a.92.92,0,0,1,.14-.65l37.83-45.69c.1-.13.22-.08.28.05l3.95,9.93a.9.9,0,0,1,0,.44.64.64,0,0,1-.18.37L435.52,331.6a.13.13,0,0,1-.22-.05A.6.6,0,0,1,435.25,331.39Zm38-45.31-34.89,42.15,38.54-33Z"/><path class="cls-11" d="M143.68,1197.48l-21.93-44.76a.92.92,0,0,1,0-.67l57.79-131.87c.08-.2.21-.26.3-.17a.73.73,0,0,1,.08.55L144.08,1197.2a.61.61,0,0,1-.19.35c-.07.06-.15,0-.2-.06Zm-21.42-45.24,21.54,44L179,1022.68Z"/><path class="cls-11" d="M537.59,287.44,519.4,182.7a.89.89,0,0,1,.09-.58c.08-.16.2-.21.28-.11l59.32,67.78a.62.62,0,0,1,.08.44.72.72,0,0,1-.18.44l-41.12,37c-.09.08-.17.05-.23-.05A.44.44,0,0,1,537.59,287.44Zm-17.5-103.85,17.88,103,40.43-36.34Z"/><path class="cls-11" d="M519.4,182.35c.05-.23.16-.39.27-.39l87.27-4.14c.08,0,.15.09.18.25a.93.93,0,0,1-.06.49l-27.95,71.92c-.08.22-.22.3-.32.19l-59.31-67.78,0,0A.8.8,0,0,1,519.4,182.35Zm87-3.53-85.89,4.07,58.38,66.7Z"/><path class="cls-11" d="M295.55,725.87a1,1,0,0,1,.1-.43l48.14-88.19c.08-.13.17-.18.25-.13a.42.42,0,0,1,.12.37l-1.59,139.08a.85.85,0,0,1-.14.48c-.07.12-.17.13-.24.06l-46.55-50.89,0,0A.71.71,0,0,1,295.55,725.87Zm48.13-87.25-47.49,87,45.92,50.2Z"/><path class="cls-11" d="M477,295.42c0-.27.14-.5.27-.52l60.56-8.19c.12,0,.21.15.2.39l0,2.82a1,1,0,0,1-.09.4.27.27,0,0,1-.19.18l-60.52,5.38s-.09,0-.13-.09A.67.67,0,0,1,477,295.42Zm60.55-7.71-39.45,5.34,39.42-3.51Z"/><path class="cls-11" d="M492.9,416.48,477,295.61a1.07,1.07,0,0,1,.05-.47c.06-.14.14-.23.22-.24l60.51-5.38c.09,0,.15.08.18.23a.91.91,0,0,1,0,.49L493.31,416.49c-.06.17-.15.27-.24.27a.18.18,0,0,1-.12-.09A.74.74,0,0,1,492.9,416.48ZM477.57,295.85,493.24,415.2l44.08-124.67Z"/><path class="cls-11" d="M285.19,855.09l10.36-129.28a.81.81,0,0,1,.15-.43c.08-.1.16-.12.23,0l46.54,50.89a.54.54,0,0,1,.1.39.82.82,0,0,1-.14.44l-56.9,78.4c-.08.11-.18.14-.25,0s0,0,0,0A.67.67,0,0,1,285.19,855.09ZM296,726.56,285.74,854.11l56.13-77.35Z"/><path class="cls-11" d="M143.64,1197l35.86-176.63c.05-.22.16-.38.26-.39s.2.15.19.37l3.21,222.92a.89.89,0,0,1-.13.5c-.08.11-.18.14-.25.06l-39.07-46.29,0,0A.8.8,0,0,1,143.64,1197Zm35.87-174.34-35.36,174.18,38.53,45.63Z"/><path class="cls-11" d="M179.49,1020.64a1,1,0,0,1,.11-.54l81.11-130.93c.09-.14.2-.17.27-.07L363.8,1025.54a.88.88,0,0,1,.06.56c-.05.21-.16.36-.27.36L179.67,1021s-.09,0-.13-.09A.45.45,0,0,1,179.49,1020.64ZM260.8,890.13,180.36,1020l182.42,5.46Z"/><path class="cls-11" d="M182.69,1243.5l-3.21-222.92a1,1,0,0,1,.09-.42c.06-.12.13-.19.2-.18l183.93,5.5c.1,0,.17.15.18.36a.81.81,0,0,1-.15.54L183,1243.79c-.07.08-.15.1-.22,0l0-.06A.51.51,0,0,1,182.69,1243.5ZM180,1021l3.18,221.63,179.68-216.15Z"/><path class="cls-11" d="M342.1,776.76l1.59-139.08a.92.92,0,0,1,.08-.38c.05-.11.12-.18.18-.19l51.7-12.36c.09,0,.17.06.2.21a1,1,0,0,1,0,.5L342.52,776.89c-.07.18-.18.29-.27.26a.16.16,0,0,1-.09-.09A.54.54,0,0,1,342.1,776.76ZM344.16,638,342.58,775.2l52.58-149.37Z"/><path class="cls-11" d="M182.69,1243.39a.9.9,0,0,1,.15-.42l180.72-217.41c.11-.13.23-.09.29.07a1,1,0,0,1,0,.62l-126.31,291c-.09.2-.23.26-.32.14l-54.41-73.56,0,0A.71.71,0,0,1,182.69,1243.39Zm179.9-215.64L183.38,1243.34l54,73Z"/><path class="cls-11" d="M395.41,625.49a1,1,0,0,1,.12-.65l89.92-124c.12-.15.25-.12.31.06l11.11,34.25a.88.88,0,0,1,0,.43.71.71,0,0,1-.16.35l-101,89.72a.14.14,0,0,1-.23,0A.84.84,0,0,1,395.41,625.49Zm90-123.57-87.75,121,98.6-87.56Z"/><path class="cls-11" d="M492.92,416.57a.92.92,0,0,1,0-.54l44.64-126.25c0-.15.14-.25.22-.26s.15.08.18.23l18.38,93.49a1,1,0,0,1,0,.44.5.5,0,0,1-.18.3l-63,32.76c-.07,0-.14,0-.19-.07ZM537.69,291l-44,124.52,62.16-32.31Z"/><path class="cls-11" d="M537.58,287.29a.76.76,0,0,1,.18-.53l41.13-37c.09-.09.19,0,.25.1a1,1,0,0,1,0,.57l-14.41,41c-.06.17-.16.27-.25.26l-26.71-4a.17.17,0,0,1-.11-.1A.64.64,0,0,1,537.58,287.29Zm40.73-36-39.56,35.55,25.7,3.89Z"/><path class="cls-11" d="M260.59,889.57a.84.84,0,0,1,.14-.42l24.6-34.47c.1-.14.22-.13.29,0l78.21,170.91a.87.87,0,0,1,0,.65c-.09.21-.23.27-.32.15L260.67,890l0,0A.75.75,0,0,1,260.59,889.57Zm24.77-33.88-24.1,33.78L362,1023.14Z"/><path class="cls-11" d="M537.54,290.1l0-2.81a.93.93,0,0,1,.1-.42c.05-.12.13-.17.2-.16l26.72,4c.11,0,.19.24.16.51s-.16.47-.29.47l-26.75-1.23a.14.14,0,0,1-.12-.09A.55.55,0,0,1,537.54,290.1Zm.5-2.37,0,1.8,17.13.78Z"/><path class="cls-11" d="M363.46,1026.34l-78.22-170.9a.8.8,0,0,1,0-.39.72.72,0,0,1,.13-.38l56.9-78.4c.07-.09.15-.12.21-.08a.38.38,0,0,1,.12.29l21.32,249.31a.9.9,0,0,1-.14.58c-.09.12-.2.12-.27,0A0,0,0,0,1,363.46,1026.34ZM285.79,855.08l77.47,169.26-21.11-246.9Z"/><path class="cls-11" d="M555.93,383.77l-18.38-93.5a1.08,1.08,0,0,1,0-.5c.06-.15.15-.25.24-.25l26.75,1.23c.13,0,.2.21.18.48l-8.38,92.27a.67.67,0,0,1-.21.47c-.08,0-.15,0-.2-.07A.4.4,0,0,1,555.93,383.77Zm-17.78-93.25,17.93,91.23,8.17-90Z"/><path class="cls-11" d="M342.15,776.44,395.45,625c.05-.15.13-.25.21-.26s.15,0,.18.2L482.16,972.4a1,1,0,0,1-.08.62c-.09.17-.21.21-.3.09l-139.6-196a0,0,0,0,1,0,0A.82.82,0,0,1,342.15,776.44Zm53.42-150.29L342.66,776.47,481.25,971.08Z"/><path class="cls-11" d="M395.4,625.25a.65.65,0,0,1,.18-.45l101-89.73c.11-.1.21,0,.26.14l64.88,231.15a.93.93,0,0,1,0,.59c-.08.18-.2.25-.29.18L395.5,625.69s0,0-.05-.06A.7.7,0,0,1,395.4,625.25Zm101.13-89.13L396.24,625.19l164.7,140.4Z"/><path class="cls-11" d="M481.73,973,395.42,625.53a.92.92,0,0,1,.05-.59c.08-.18.2-.24.28-.16L561.67,766.21a.42.42,0,0,1,.1.3,1,1,0,0,1-.06.41l-79.6,206c-.05.15-.13.23-.21.24a.12.12,0,0,1-.13-.08A.42.42,0,0,1,481.73,973ZM396.17,626.26,482,971.81l79.16-204.89Z"/><path class="cls-11" d="M485.32,501.28l7.57-85a.65.65,0,0,1,.23-.49l63-32.76c.11-.06.21,0,.23.24a.91.91,0,0,1-.1.59L485.68,501.62c-.08.13-.18.17-.26.1a.13.13,0,0,1,0-.06A.69.69,0,0,1,485.32,501.28Zm8-84.64-7.45,83.51,69.36-115.7Z"/><path class="cls-11" d="M561.33,767,496.45,535.82a1,1,0,0,1,.05-.6c.09-.17.2-.24.29-.16l50.74,46.72a.43.43,0,0,1,.1.29L561.77,766.5a.85.85,0,0,1-.16.59.14.14,0,0,1-.25,0ZM497.28,536.66,561.09,764,547.18,582.61Z"/><path class="cls-11" d="M496.46,535.84a.89.89,0,0,1,0-.58l59.49-152c0-.14.13-.23.21-.24s.15.09.18.22l17.85,83.86a1.08,1.08,0,0,1,0,.4.6.6,0,0,1-.16.32L496.71,536a.13.13,0,0,1-.22-.05A.15.15,0,0,1,496.46,535.84Zm59.6-151.43-58.69,150,76.31-67.24Z"/><path class="cls-11" d="M496.46,535.84,485.35,501.6a.92.92,0,0,1,.08-.69L556,383.15c.1-.17.23-.21.3,0a.88.88,0,0,1,0,.64l-59.49,152a.34.34,0,0,1-.2.23c-.05,0-.1,0-.14-.09A.15.15,0,0,1,496.46,535.84Zm-10.59-34.55,10.84,33.41,58-148.28Z"/><path class="cls-11" d="M363.41,1026.15,342.1,776.84a.92.92,0,0,1,.12-.55c.09-.13.2-.16.27,0l139.61,196a.71.71,0,0,1,.06.5.51.51,0,0,1-.22.4l-118.29,53.28a.14.14,0,0,1-.18-.08A.58.58,0,0,1,363.41,1026.15ZM342.68,777.8l21.16,247.61,117.5-52.92Z"/><path class="cls-11" d="M237.1,1317a1,1,0,0,1,.08-.39l126.3-291c.1-.21.24-.27.33-.13a.76.76,0,0,1,0,.63L255.62,1343.55a.49.49,0,0,1-.16.25.13.13,0,0,1-.18,0l-18.11-26.4v0A.62.62,0,0,1,237.1,1317Zm124.3-285.26-123.72,285,17.74,25.86Z"/><path class="cls-11" d="M496.43,535.53a.76.76,0,0,1,.18-.46L574,466.92c.09-.08.18-.06.24.07a.92.92,0,0,1,0,.5l-26.6,114.88a.75.75,0,0,1-.15.31.13.13,0,0,1-.19,0L496.53,536a.13.13,0,0,1,0-.06A.64.64,0,0,1,496.43,535.53Zm77.13-67.29-76.31,67.24,50.06,46.1Z"/><path class="cls-11" d="M255.22,1343.58a1,1,0,0,1,0-.47l108.2-317.36c.07-.19.17-.29.27-.26s.16.19.15.4l-8,318.87a.83.83,0,0,1-.09.39c-.06.11-.13.17-.2.17l-100.22-1.5a.15.15,0,0,1-.12-.09A.44.44,0,0,1,255.22,1343.58Zm108.15-316L255.86,1342.85l99.58,1.49Z"/><path class="cls-11" d="M481.77,972.45l79.6-206c.06-.15.15-.24.24-.23s.14.13.16.29l1.77,17.63a1,1,0,0,1-.07.48L482.1,973c-.09.22-.24.28-.33.14h0A.81.81,0,0,1,481.77,972.45ZM561.4,767.74,486.89,960.58l76.16-176.35Z"/><path class="cls-11" d="M355.43,1344.91l8-318.86a.86.86,0,0,1,.15-.49c.09-.1.19-.1.25,0l68.92,110.89a.87.87,0,0,1,0,.66l-76.89,208c-.06.18-.17.28-.26.23s-.07,0-.09-.08A.7.7,0,0,1,355.43,1344.91ZM363.85,1027l-7.92,316.38L432.23,1137Z"/><path class="cls-11" d="M363.43,1025.89a.52.52,0,0,1,.21-.39l118.3-53.28c.09,0,.17,0,.21.16a1,1,0,0,1,0,.5l-49.39,164.17a.5.5,0,0,1-.17.28.13.13,0,0,1-.19-.06l-68.91-110.89h0A.75.75,0,0,1,363.43,1025.89Zm118.06-52.52-117.28,52.82,68.32,109.94Z"/><path class="cls-11" d="M481.76,973.08a.92.92,0,0,1,0-.67L563.15,784a.36.36,0,0,1,.19-.21c.07,0,.13,0,.17.14l6.58,17.49a1,1,0,0,1-.05.67L482.08,973c-.09.2-.23.23-.31.09S481.76,973.08,481.76,973.08Zm81.51-188-78,180.52L569.57,801.8Z"/><path class="cls-11" d="M481.71,972.92a1,1,0,0,1,.09-.55l87.95-170.92c.07-.14.17-.2.25-.16a.43.43,0,0,1,.13.36l2.31,151.83a.92.92,0,0,1-.07.4c0,.11-.12.19-.19.2l-90.27,19.1a.14.14,0,0,1-.14-.08A.48.48,0,0,1,481.71,972.92Zm88-170.12-87.1,169.28L572,953.16Z"/><path class="cls-11" d="M481.71,972.71c0-.25.13-.47.26-.51l90.26-19.09c.11,0,.19.09.21.29L574.21,971a1,1,0,0,1-.07.46c0,.14-.14.22-.21.22l-92,1.47a.14.14,0,0,1-.12-.08A.75.75,0,0,1,481.71,972.71ZM572,954.12l-85.11,18,86.77-1.38Z"/><path class="cls-11" d="M433.37,327.41c-1.27,2.91-1.36,6.94-.2,9s3.14,1.39,4.41-1.52,1.36-6.94.2-9S434.65,324.51,433.37,327.41Z"/><path class="cls-11" d="M441,242.41c-1.28,2.91-1.37,6.94-.21,9s3.14,1.39,4.41-1.52,1.36-6.93.2-9S442.22,239.51,441,242.41Z"/><path class="cls-11" d="M382,360.66c-1.27,2.9-1.36,6.93-.2,9s3.14,1.39,4.41-1.51,1.36-6.94.2-9S383.29,357.75,382,360.66Z"/><path class="cls-11" d="M341.83,633.85c-1.28,2.91-1.37,6.93-.21,9s3.14,1.39,4.41-1.52,1.36-6.94.2-9S343.1,630.94,341.83,633.85Z"/><path class="cls-11" d="M393.53,621.49c-1.28,2.91-1.37,6.94-.21,9s3.14,1.38,4.41-1.52,1.36-6.94.2-9S394.8,618.59,393.53,621.49Z"/><path class="cls-11" d="M382,360.66c-1.27,2.9-1.36,6.93-.2,9s3.14,1.39,4.41-1.51,1.36-6.94.2-9S383.29,357.75,382,360.66Z"/><path class="cls-11" d="M497.38,108.18c-1.27,2.91-1.36,6.94-.2,9s3.14,1.38,4.41-1.52,1.36-6.94.2-9S498.66,105.27,497.38,108.18Z"/><path class="cls-11" d="M517.52,178.71c-1.28,2.91-1.37,6.93-.2,9s3.13,1.38,4.4-1.52,1.37-6.94.21-9S518.79,175.8,517.52,178.71Z"/><path class="cls-11" d="M517.52,178.71c-1.28,2.91-1.37,6.93-.2,9s3.13,1.38,4.4-1.52,1.37-6.94.21-9S518.79,175.8,517.52,178.71Z"/><path class="cls-11" d="M258.72,885.79c-1.27,2.91-1.36,6.94-.2,9s3.14,1.38,4.41-1.52,1.36-6.94.2-9S260,882.88,258.72,885.79Z"/><path class="cls-11" d="M283.32,851.32c-1.27,2.91-1.36,6.94-.2,9s3.14,1.39,4.41-1.52,1.36-6.93.2-9S284.59,848.42,283.32,851.32Z"/><path class="cls-11" d="M293.69,722c-1.28,2.91-1.37,6.93-.21,9s3.14,1.38,4.41-1.52,1.36-6.94.2-9S295,719.13,293.69,722Z"/><path class="cls-11" d="M483.45,497.53c-1.27,2.9-1.36,6.93-.2,9s3.13,1.38,4.41-1.53,1.36-6.93.2-9S484.72,494.62,483.45,497.53Z"/><path class="cls-11" d="M433.37,327.41c-1.27,2.91-1.36,6.94-.2,9s3.14,1.39,4.41-1.52,1.36-6.94.2-9S434.65,324.51,433.37,327.41Z"/><path class="cls-11" d="M382,360.66c-1.27,2.9-1.36,6.93-.2,9s3.14,1.39,4.41-1.51,1.36-6.94.2-9S383.29,357.75,382,360.66Z"/><path class="cls-11" d="M393.53,621.49c-1.28,2.91-1.37,6.94-.21,9s3.14,1.38,4.41-1.52,1.36-6.94.2-9S394.8,618.59,393.53,621.49Z"/><path class="cls-11" d="M483.45,497.53c-1.27,2.9-1.36,6.93-.2,9s3.13,1.38,4.41-1.53,1.36-6.93.2-9S484.72,494.62,483.45,497.53Z"/><path class="cls-11" d="M382,360.66c-1.27,2.9-1.36,6.93-.2,9s3.14,1.39,4.41-1.51,1.36-6.94.2-9S383.29,357.75,382,360.66Z"/><path class="cls-11" d="M433.37,327.41c-1.27,2.91-1.36,6.94-.2,9s3.14,1.39,4.41-1.52,1.36-6.94.2-9S434.65,324.51,433.37,327.41Z"/><path class="cls-11" d="M471.2,281.72c-1.27,2.9-1.37,6.93-.2,9s3.13,1.39,4.4-1.51,1.37-6.94.2-9S472.47,278.81,471.2,281.72Z"/><path class="cls-11" d="M441,242.41c-1.28,2.91-1.37,6.94-.21,9s3.14,1.39,4.41-1.52,1.36-6.93.2-9S442.22,239.51,441,242.41Z"/><path class="cls-11" d="M483.45,497.53c-1.27,2.9-1.36,6.93-.2,9s3.13,1.38,4.41-1.53,1.36-6.93.2-9S484.72,494.62,483.45,497.53Z"/><path class="cls-11" d="M491,412.53c-1.27,2.9-1.36,6.93-.2,9s3.14,1.38,4.41-1.52,1.36-6.94.2-9S492.3,409.62,491,412.53Z"/><path class="cls-11" d="M433.37,327.41c-1.27,2.91-1.36,6.94-.2,9s3.14,1.39,4.41-1.52,1.36-6.94.2-9S434.65,324.51,433.37,327.41Z"/><path class="cls-11" d="M177.62,1016.72c-1.28,2.91-1.37,6.93-.21,9s3.14,1.39,4.41-1.52,1.36-6.94.2-9S178.89,1013.82,177.62,1016.72Z"/><path class="cls-11" d="M258.72,885.79c-1.27,2.91-1.36,6.94-.2,9s3.14,1.38,4.41-1.52,1.36-6.94.2-9S260,882.88,258.72,885.79Z"/><path class="cls-11" d="M193.52,842.29c-1.28,2.9-1.37,6.93-.2,9s3.13,1.38,4.4-1.52,1.37-6.94.21-9S194.79,839.38,193.52,842.29Z"/><path class="cls-11" d="M475.15,291.65c-1.27,2.91-1.36,6.93-.2,9s3.13,1.39,4.41-1.52,1.36-6.93.2-9S476.43,288.75,475.15,291.65Z"/><path class="cls-11" d="M535.71,283.46c-1.27,2.9-1.36,6.93-.2,9s3.13,1.38,4.41-1.53,1.36-6.93.2-9S537,280.55,535.71,283.46Z"/><path class="cls-11" d="M517.52,178.71c-1.28,2.91-1.37,6.93-.2,9s3.13,1.38,4.4-1.52,1.37-6.94.21-9S518.79,175.8,517.52,178.71Z"/><path class="cls-11" d="M475.15,291.65c-1.27,2.91-1.36,6.93-.2,9s3.13,1.39,4.41-1.52,1.36-6.93.2-9S476.43,288.75,475.15,291.65Z"/><path class="cls-11" d="M517.52,178.71c-1.28,2.91-1.37,6.93-.2,9s3.13,1.38,4.4-1.52,1.37-6.94.21-9S518.79,175.8,517.52,178.71Z"/><path class="cls-11" d="M471.2,281.72c-1.27,2.9-1.37,6.93-.2,9s3.13,1.39,4.4-1.51,1.37-6.94.2-9S472.47,278.81,471.2,281.72Z"/><path class="cls-11" d="M491,412.53c-1.27,2.9-1.36,6.93-.2,9s3.14,1.38,4.41-1.52,1.36-6.94.2-9S492.3,409.62,491,412.53Z"/><path class="cls-11" d="M475.15,291.65c-1.27,2.91-1.36,6.93-.2,9s3.13,1.39,4.41-1.52,1.36-6.93.2-9S476.43,288.75,475.15,291.65Z"/><path class="cls-11" d="M433.37,327.41c-1.27,2.91-1.36,6.94-.2,9s3.14,1.39,4.41-1.52,1.36-6.94.2-9S434.65,324.51,433.37,327.41Z"/><path class="cls-11" d="M475.15,291.65c-1.27,2.91-1.36,6.93-.2,9s3.13,1.39,4.41-1.52,1.36-6.93.2-9S476.43,288.75,475.15,291.65Z"/><path class="cls-11" d="M471.2,281.72c-1.27,2.9-1.37,6.93-.2,9s3.13,1.39,4.4-1.51,1.37-6.94.2-9S472.47,278.81,471.2,281.72Z"/><path class="cls-11" d="M433.37,327.41c-1.27,2.91-1.36,6.94-.2,9s3.14,1.39,4.41-1.52,1.36-6.94.2-9S434.65,324.51,433.37,327.41Z"/><path class="cls-11" d="M177.62,1016.72c-1.28,2.91-1.37,6.93-.21,9s3.14,1.39,4.41-1.52,1.36-6.94.2-9S178.89,1013.82,177.62,1016.72Z"/><path class="cls-11" d="M535.71,283.46c-1.27,2.9-1.36,6.93-.2,9s3.13,1.38,4.41-1.53,1.36-6.93.2-9S537,280.55,535.71,283.46Z"/><path class="cls-11" d="M517.52,178.71c-1.28,2.91-1.37,6.93-.2,9s3.13,1.38,4.4-1.52,1.37-6.94.21-9S518.79,175.8,517.52,178.71Z"/><path class="cls-11" d="M517.52,178.71c-1.28,2.91-1.37,6.93-.2,9s3.13,1.38,4.4-1.52,1.37-6.94.21-9S518.79,175.8,517.52,178.71Z"/><path class="cls-11" d="M340.23,772.92c-1.27,2.91-1.36,6.94-.2,9s3.13,1.39,4.41-1.52,1.36-6.93.2-9S341.5,770,340.23,772.92Z"/><path class="cls-11" d="M341.83,633.85c-1.28,2.91-1.37,6.93-.21,9s3.14,1.39,4.41-1.52,1.36-6.94.2-9S343.1,630.94,341.83,633.85Z"/><path class="cls-11" d="M293.69,722c-1.28,2.91-1.37,6.93-.21,9s3.14,1.38,4.41-1.52,1.36-6.94.2-9S295,719.13,293.69,722Z"/><path class="cls-11" d="M535.67,286.27c-1.27,2.91-1.36,6.94-.2,9s3.13,1.39,4.41-1.52,1.36-6.94.19-9S536.94,283.37,535.67,286.27Z"/><path class="cls-11" d="M535.71,283.46c-1.27,2.9-1.36,6.93-.2,9s3.13,1.38,4.41-1.53,1.36-6.93.2-9S537,280.55,535.71,283.46Z"/><path class="cls-11" d="M475.15,291.65c-1.27,2.91-1.36,6.93-.2,9s3.13,1.39,4.41-1.52,1.36-6.93.2-9S476.43,288.75,475.15,291.65Z"/><path class="cls-11" d="M491,412.53c-1.27,2.9-1.36,6.93-.2,9s3.14,1.38,4.41-1.52,1.36-6.94.2-9S492.3,409.62,491,412.53Z"/><path class="cls-11" d="M535.67,286.27c-1.27,2.91-1.36,6.94-.2,9s3.13,1.39,4.41-1.52,1.36-6.94.19-9S536.94,283.37,535.67,286.27Z"/><path class="cls-11" d="M475.15,291.65c-1.27,2.91-1.36,6.93-.2,9s3.13,1.39,4.41-1.52,1.36-6.93.2-9S476.43,288.75,475.15,291.65Z"/><path class="cls-11" d="M283.32,851.32c-1.27,2.91-1.36,6.94-.2,9s3.14,1.39,4.41-1.52,1.36-6.93.2-9S284.59,848.42,283.32,851.32Z"/><path class="cls-11" d="M340.23,772.92c-1.27,2.91-1.36,6.94-.2,9s3.13,1.39,4.41-1.52,1.36-6.93.2-9S341.5,770,340.23,772.92Z"/><path class="cls-11" d="M293.69,722c-1.28,2.91-1.37,6.93-.21,9s3.14,1.38,4.41-1.52,1.36-6.94.2-9S295,719.13,293.69,722Z"/><path class="cls-11" d="M177.62,1016.72c-1.28,2.91-1.37,6.93-.21,9s3.14,1.39,4.41-1.52,1.36-6.94.2-9S178.89,1013.82,177.62,1016.72Z"/><path class="cls-11" d="M361.54,1022.23c-1.27,2.91-1.36,6.94-.2,9s3.13,1.39,4.41-1.52,1.36-6.94.2-9S362.81,1019.32,361.54,1022.23Z"/><path class="cls-11" d="M258.72,885.79c-1.27,2.91-1.36,6.94-.2,9s3.14,1.38,4.41-1.52,1.36-6.94.2-9S260,882.88,258.72,885.79Z"/><path class="cls-11" d="M177.62,1016.72c-1.28,2.91-1.37,6.93-.21,9s3.14,1.39,4.41-1.52,1.36-6.94.2-9S178.89,1013.82,177.62,1016.72Z"/><path class="cls-11" d="M361.54,1022.23c-1.27,2.91-1.36,6.94-.2,9s3.13,1.39,4.41-1.52,1.36-6.94.2-9S362.81,1019.32,361.54,1022.23Z"/><path class="cls-11" d="M177.62,1016.72c-1.28,2.91-1.37,6.93-.21,9s3.14,1.39,4.41-1.52,1.36-6.94.2-9S178.89,1013.82,177.62,1016.72Z"/><path class="cls-11" d="M340.23,772.92c-1.27,2.91-1.36,6.94-.2,9s3.13,1.39,4.41-1.52,1.36-6.93.2-9S341.5,770,340.23,772.92Z"/><path class="cls-11" d="M393.53,621.49c-1.28,2.91-1.37,6.94-.21,9s3.14,1.38,4.41-1.52,1.36-6.94.2-9S394.8,618.59,393.53,621.49Z"/><path class="cls-11" d="M341.83,633.85c-1.28,2.91-1.37,6.93-.21,9s3.14,1.39,4.41-1.52,1.36-6.94.2-9S343.1,630.94,341.83,633.85Z"/><path class="cls-11" d="M361.54,1022.23c-1.27,2.91-1.36,6.94-.2,9s3.13,1.39,4.41-1.52,1.36-6.94.2-9S362.81,1019.32,361.54,1022.23Z"/><path class="cls-11" d="M494.56,531.77c-1.28,2.91-1.37,6.94-.2,9s3.13,1.39,4.41-1.52,1.36-6.94.2-9S495.83,528.87,494.56,531.77Z"/><path class="cls-11" d="M483.45,497.53c-1.27,2.9-1.36,6.93-.2,9s3.13,1.38,4.41-1.53,1.36-6.93.2-9S484.72,494.62,483.45,497.53Z"/><path class="cls-11" d="M393.53,621.49c-1.28,2.91-1.37,6.94-.21,9s3.14,1.38,4.41-1.52,1.36-6.94.2-9S394.8,618.59,393.53,621.49Z"/><path class="cls-11" d="M491,412.53c-1.27,2.9-1.36,6.93-.2,9s3.14,1.38,4.41-1.52,1.36-6.94.2-9S492.3,409.62,491,412.53Z"/><path class="cls-11" d="M535.67,286.27c-1.27,2.91-1.36,6.94-.2,9s3.13,1.39,4.41-1.52,1.36-6.94.19-9S536.94,283.37,535.67,286.27Z"/><path class="cls-11" d="M535.71,283.46c-1.27,2.9-1.36,6.93-.2,9s3.13,1.38,4.41-1.53,1.36-6.93.2-9S537,280.55,535.71,283.46Z"/><path class="cls-11" d="M361.54,1022.23c-1.27,2.91-1.36,6.94-.2,9s3.13,1.39,4.41-1.52,1.36-6.94.2-9S362.81,1019.32,361.54,1022.23Z"/><path class="cls-11" d="M283.32,851.32c-1.27,2.91-1.36,6.94-.2,9s3.14,1.39,4.41-1.52,1.36-6.93.2-9S284.59,848.42,283.32,851.32Z"/><path class="cls-11" d="M258.72,885.79c-1.27,2.91-1.36,6.94-.2,9s3.14,1.38,4.41-1.52,1.36-6.94.2-9S260,882.88,258.72,885.79Z"/><path class="cls-11" d="M535.67,286.27c-1.27,2.91-1.36,6.94-.2,9s3.13,1.39,4.41-1.52,1.36-6.94.19-9S536.94,283.37,535.67,286.27Z"/><path class="cls-11" d="M535.71,283.46c-1.27,2.9-1.36,6.93-.2,9s3.13,1.38,4.41-1.53,1.36-6.93.2-9S537,280.55,535.71,283.46Z"/><path class="cls-11" d="M361.54,1022.23c-1.27,2.91-1.36,6.94-.2,9s3.13,1.39,4.41-1.52,1.36-6.94.2-9S362.81,1019.32,361.54,1022.23Z"/><path class="cls-11" d="M340.23,772.92c-1.27,2.91-1.36,6.94-.2,9s3.13,1.39,4.41-1.52,1.36-6.93.2-9S341.5,770,340.23,772.92Z"/><path class="cls-11" d="M283.32,851.32c-1.27,2.91-1.36,6.94-.2,9s3.14,1.39,4.41-1.52,1.36-6.93.2-9S284.59,848.42,283.32,851.32Z"/><path class="cls-11" d="M535.67,286.27c-1.27,2.91-1.36,6.94-.2,9s3.13,1.39,4.41-1.52,1.36-6.94.19-9S536.94,283.37,535.67,286.27Z"/><path class="cls-11" d="M340.23,772.92c-1.27,2.91-1.36,6.94-.2,9s3.13,1.39,4.41-1.52,1.36-6.93.2-9S341.5,770,340.23,772.92Z"/><path class="cls-11" d="M479.84,969c-1.28,2.9-1.37,6.93-.2,9s3.13,1.39,4.4-1.52,1.37-6.93.21-9S481.11,966.05,479.84,969Z"/><path class="cls-11" d="M393.53,621.49c-1.28,2.91-1.37,6.94-.21,9s3.14,1.38,4.41-1.52,1.36-6.94.2-9S394.8,618.59,393.53,621.49Z"/><path class="cls-11" d="M494.56,531.77c-1.28,2.91-1.37,6.94-.2,9s3.13,1.39,4.41-1.52,1.36-6.94.2-9S495.83,528.87,494.56,531.77Z"/><path class="cls-11" d="M393.53,621.49c-1.28,2.91-1.37,6.94-.21,9s3.14,1.38,4.41-1.52,1.36-6.94.2-9S394.8,618.59,393.53,621.49Z"/><path class="cls-11" d="M479.84,969c-1.28,2.9-1.37,6.93-.2,9s3.13,1.39,4.4-1.52,1.37-6.93.21-9S481.11,966.05,479.84,969Z"/><path class="cls-11" d="M393.53,621.49c-1.28,2.91-1.37,6.94-.21,9s3.14,1.38,4.41-1.52,1.36-6.94.2-9S394.8,618.59,393.53,621.49Z"/><path class="cls-11" d="M483.45,497.53c-1.27,2.9-1.36,6.93-.2,9s3.13,1.38,4.41-1.53,1.36-6.93.2-9S484.72,494.62,483.45,497.53Z"/><path class="cls-11" d="M491,412.53c-1.27,2.9-1.36,6.93-.2,9s3.14,1.38,4.41-1.52,1.36-6.94.2-9S492.3,409.62,491,412.53Z"/><path class="cls-11" d="M494.56,531.77c-1.28,2.91-1.37,6.94-.2,9s3.13,1.39,4.41-1.52,1.36-6.94.2-9S495.83,528.87,494.56,531.77Z"/><path class="cls-11" d="M494.56,531.77c-1.28,2.91-1.37,6.94-.2,9s3.13,1.39,4.41-1.52,1.36-6.94.2-9S495.83,528.87,494.56,531.77Z"/><path class="cls-11" d="M494.56,531.77c-1.28,2.91-1.37,6.94-.2,9s3.13,1.39,4.41-1.52,1.36-6.94.2-9S495.83,528.87,494.56,531.77Z"/><path class="cls-11" d="M483.45,497.53c-1.27,2.9-1.36,6.93-.2,9s3.13,1.38,4.41-1.53,1.36-6.93.2-9S484.72,494.62,483.45,497.53Z"/><path class="cls-11" d="M361.54,1022.23c-1.27,2.91-1.36,6.94-.2,9s3.13,1.39,4.41-1.52,1.36-6.94.2-9S362.81,1019.32,361.54,1022.23Z"/><path class="cls-11" d="M479.84,969c-1.28,2.9-1.37,6.93-.2,9s3.13,1.39,4.4-1.52,1.37-6.93.21-9S481.11,966.05,479.84,969Z"/><path class="cls-11" d="M340.23,772.92c-1.27,2.91-1.36,6.94-.2,9s3.13,1.39,4.41-1.52,1.36-6.93.2-9S341.5,770,340.23,772.92Z"/><path class="cls-11" d="M361.54,1022.23c-1.27,2.91-1.36,6.94-.2,9s3.13,1.39,4.41-1.52,1.36-6.94.2-9S362.81,1019.32,361.54,1022.23Z"/><path class="cls-11" d="M494.56,531.77c-1.28,2.91-1.37,6.94-.2,9s3.13,1.39,4.41-1.52,1.36-6.94.2-9S495.83,528.87,494.56,531.77Z"/><path class="cls-11" d="M361.54,1022.23c-1.27,2.91-1.36,6.94-.2,9s3.13,1.39,4.41-1.52,1.36-6.94.2-9S362.81,1019.32,361.54,1022.23Z"/><path class="cls-11" d="M479.84,969c-1.28,2.9-1.37,6.93-.2,9s3.13,1.39,4.4-1.52,1.37-6.93.21-9S481.11,966.05,479.84,969Z"/><path class="cls-11" d="M361.54,1022.23c-1.27,2.91-1.36,6.94-.2,9s3.13,1.39,4.41-1.52,1.36-6.94.2-9S362.81,1019.32,361.54,1022.23Z"/><path class="cls-11" d="M479.84,969c-1.28,2.9-1.37,6.93-.2,9s3.13,1.39,4.4-1.52,1.37-6.93.21-9S481.11,966.05,479.84,969Z"/><path class="cls-11" d="M361.54,1022.23c-1.27,2.91-1.36,6.94-.2,9s3.13,1.39,4.41-1.52,1.36-6.94.2-9S362.81,1019.32,361.54,1022.23Z"/><path class="cls-11" d="M479.84,969c-1.28,2.9-1.37,6.93-.2,9s3.13,1.39,4.4-1.52,1.37-6.93.21-9S481.11,966.05,479.84,969Z"/><path class="cls-11" d="M479.84,969c-1.28,2.9-1.37,6.93-.2,9s3.13,1.39,4.4-1.52,1.37-6.93.21-9S481.11,966.05,479.84,969Z"/><path class="cls-11" d="M479.84,969c-1.28,2.9-1.37,6.93-.2,9s3.13,1.39,4.4-1.52,1.37-6.93.21-9S481.11,966.05,479.84,969Z"/></g></g></g></svg>