<?xml version="1.0" encoding="utf-8"?>
<!-- Generator: Adobe Illustrator 24.0.2, SVG Export Plug-In . SVG Version: 6.00 Build 0)  -->
<svg version="1.1" id="Capa_1" xmlns="http://www.w3.org/2000/svg" xmlns:xlink="http://www.w3.org/1999/xlink" x="0px" y="0px"
	 viewBox="0 0 10 10" style="enable-background:new 0 0 10 10;" xml:space="preserve">
<style type="text/css">
	.st0{fill:url(#SVGID_1_);}
	.st1{fill:url(#SVGID_2_);}
	.st2{fill:url(#SVGID_3_);}
	.st3{fill:url(#SVGID_4_);}
	.st4{fill:url(#SVGID_5_);}
	.st5{fill:url(#SVGID_6_);}
	.st6{fill:url(#SVGID_7_);}
	.st7{fill:url(#SVGID_8_);}
	.st8{fill:url(#SVGID_9_);}
</style>
<g>
	<g>
		<g>
			<g>
				<g>
					<linearGradient id="SVGID_1_" gradientUnits="userSpaceOnUse" x1="4.5815" y1="2.588" x2="6.6737" y2="2.588">
						<stop  offset="0" style="stop-color:#5DB130"/>
						<stop  offset="0" style="stop-color:#6AC6DC"/>
						<stop  offset="1" style="stop-color:#2E8ECE"/>
					</linearGradient>
					<polygon class="st0" points="6.67,3.63 5.84,3.63 5.84,2.38 4.58,2.38 4.58,1.54 6.67,1.54 					"/>
				</g>
			</g>
			<g>
				<g>
					<linearGradient id="SVGID_2_" gradientUnits="userSpaceOnUse" x1="5.2789" y1="4.471" x2="7.2316" y2="4.471">
						<stop  offset="0" style="stop-color:#5DB130"/>
						<stop  offset="0" style="stop-color:#6AC6DC"/>
						<stop  offset="1" style="stop-color:#2E8ECE"/>
					</linearGradient>
					<path class="st1" d="M7.23,5.45H5.28V3.49h1.95V5.45z M6.12,4.61h0.28V4.33H6.12V4.61z"/>
				</g>
			</g>
			<g>
				<g>
					<linearGradient id="SVGID_3_" gradientUnits="userSpaceOnUse" x1="3.0472" y1="1.9604" x2="4.9999" y2="1.9604">
						<stop  offset="0" style="stop-color:#5DB130"/>
						<stop  offset="0" style="stop-color:#6AC6DC"/>
						<stop  offset="1" style="stop-color:#2E8ECE"/>
					</linearGradient>
					<path class="st2" d="M5,2.94H3.05V0.98H5V2.94z M3.88,2.1h0.28V1.82H3.88V2.1z"/>
				</g>
			</g>
		</g>
		<g>
			<g>
				<g>
					<linearGradient id="SVGID_4_" gradientUnits="userSpaceOnUse" x1="5.3214" y1="7.7397" x2="8.1794" y2="7.7397">
						<stop  offset="0" style="stop-color:#5DB130"/>
						<stop  offset="0" style="stop-color:#6AC6DC"/>
						<stop  offset="1" style="stop-color:#2E8ECE"/>
					</linearGradient>
					<polygon class="st3" points="7.13,8.85 5.32,7.81 5.74,7.08 6.83,7.71 7.45,6.62 8.18,7.04 					"/>
				</g>
			</g>
			<g>
				<g>
					<linearGradient id="SVGID_5_" gradientUnits="userSpaceOnUse" x1="3.4721" y1="7.0279" x2="6.1396" y2="7.0279">
						<stop  offset="0" style="stop-color:#5DB130"/>
						<stop  offset="0" style="stop-color:#6AC6DC"/>
						<stop  offset="1" style="stop-color:#2E8ECE"/>
					</linearGradient>
					<path class="st4" d="M5.16,8.36L3.47,7.39l0.98-1.69l1.69,0.98L5.16,8.36z M4.62,7.08l0.24,0.14L5,6.98L4.75,6.84L4.62,7.08z"
						/>
				</g>
			</g>
			<g>
				<g>
					<linearGradient id="SVGID_6_" gradientUnits="userSpaceOnUse" x1="6.7622" y1="6.3506" x2="9.4297" y2="6.3506">
						<stop  offset="0" style="stop-color:#5DB130"/>
						<stop  offset="0" style="stop-color:#6AC6DC"/>
						<stop  offset="1" style="stop-color:#2E8ECE"/>
					</linearGradient>
					<path class="st5" d="M8.45,7.68L6.76,6.71l0.98-1.69l1.69,0.98L8.45,7.68z M7.91,6.4l0.24,0.14L8.29,6.3L8.04,6.16L7.91,6.4z"
						/>
				</g>
			</g>
		</g>
		<g>
			<g>
				<g>
					<linearGradient id="SVGID_7_" gradientUnits="userSpaceOnUse" x1="0.5703" y1="5.9793" x2="2.8006" y2="5.9793">
						<stop  offset="0" style="stop-color:#5DB130"/>
						<stop  offset="0" style="stop-color:#6AC6DC"/>
						<stop  offset="1" style="stop-color:#2E8ECE"/>
					</linearGradient>
					<polygon class="st6" points="1.62,7.41 0.57,5.6 2.38,4.55 2.8,5.28 1.71,5.9 2.34,6.99 					"/>
				</g>
			</g>
			<g>
				<g>
					<linearGradient id="SVGID_8_" gradientUnits="userSpaceOnUse" x1="1.9824" y1="4.4943" x2="4.6499" y2="4.4943">
						<stop  offset="0" style="stop-color:#5DB130"/>
						<stop  offset="0" style="stop-color:#6AC6DC"/>
						<stop  offset="1" style="stop-color:#2E8ECE"/>
					</linearGradient>
					<path class="st7" d="M2.96,5.83L1.98,4.14l1.69-0.98l0.98,1.69L2.96,5.83z M3.13,4.44l0.14,0.24l0.24-0.14L3.37,4.3L3.13,4.44z
						"/>
				</g>
			</g>
			<g>
				<g>
					<linearGradient id="SVGID_9_" gradientUnits="userSpaceOnUse" x1="0.924" y1="7.6823" x2="3.5914" y2="7.6823">
						<stop  offset="0" style="stop-color:#5DB130"/>
						<stop  offset="0" style="stop-color:#6AC6DC"/>
						<stop  offset="1" style="stop-color:#2E8ECE"/>
					</linearGradient>
					<path class="st8" d="M1.9,9.02L0.92,7.32l1.69-0.98l0.98,1.69L1.9,9.02z M2.07,7.63l0.14,0.24l0.24-0.14L2.31,7.49L2.07,7.63z"
						/>
				</g>
			</g>
		</g>
	</g>
</g>
</svg>
