<svg xmlns="http://www.w3.org/2000/svg" xmlns:xlink="http://www.w3.org/1999/xlink" viewBox="0 0 375.32 745.02"><defs><style>.cls-1{isolation:isolate;}.cls-2{stroke-miterlimit:10;opacity:0.97;fill:url(#Degradado_sin_nombre_10);stroke:url(#Blanco_Negro);}.cls-3{fill:#f9af00;}.cls-4{fill:#cdd7d7;mix-blend-mode:soft-light;}</style><radialGradient id="Degradado_sin_nombre_10" cx="184.11" cy="136.64" r="153.26" gradientUnits="userSpaceOnUse"><stop offset="0" stop-color="#fff"/><stop offset="0" stop-color="#f6f6f6"/><stop offset="1" stop-color="#d8d1d3"/></radialGradient><linearGradient id="Blanco_Negro" x1="70.24" y1="136.64" x2="297.97" y2="136.64" gradientUnits="userSpaceOnUse"><stop offset="0" stop-color="#fff"/><stop offset="1" stop-color="#1d1d1b"/></linearGradient></defs><title>pet2</title><g class="cls-1"><g id="Capa_1" data-name="Capa 1"><rect class="cls-2" x="70.74" y="55.45" width="226.72" height="162.38"/><path class="cls-3" d="M313.07,239h-250V38.65h250ZM91.74,205.4H284.56v-133H91.74Z"/><path class="cls-3" d="M121.88,131.77V109a17,17,0,0,1,17-17h0a14.38,14.38,0,0,1,14.38,14.39v25.33Z"/><path class="cls-3" d="M256.43,132.21l.22-22.74a17,17,0,0,0-16.81-17.14h0a14.37,14.37,0,0,0-14.52,14.24l-.25,25.33Z"/><rect class="cls-3" x="126.09" y="447.29" width="124.11" height="68.05"/><path class="cls-3" d="M324.34,717.53c-88.26,0-160.1-55.94-160.1-124.71V486.19h47.53V592.82c0,49,50.65,88.68,112.57,88.68Z"/><path class="cls-3" d="M324.34,345.27c0-7.9,8.42-14.37,19.15-14.37V310.27c-10.73,0-19.15-6.36-19.15-14.37s8.42-14.37,19.15-14.37V260.9c-10.73,0-19.15-6.46-19.15-14.36s8.42-14.48,19.15-14.48V213.79H32.8v18.27c10.46,0,19,6.47,19,14.48s-8.55,14.36-19,14.36v20.63c10.46,0,19,6.37,19,14.37s-8.55,14.37-19,14.37V330.9c10.46,0,19,6.47,19,14.37s-8.41,14.47-19,14.47c.27,64.66,69.66,117,155.35,117s154.93-52.34,155.34-117C332.76,359.74,324.34,353.27,324.34,345.27Z"/><path class="cls-3" d="M176.9,157.07l-.17,16.26c-.08,6.71,7.47,12.22,16.85,12.32h0c7.94.09,14.43-4.45,14.49-10.13l.19-18.12Z"/><path class="cls-4" d="M188.79,230.56l-18,31.16,13.15-.05.34,90.29c-20.85-1.21-23-12.41-23.23-34.24a15.86,15.86,0,1,0-10,0c.18,21.52,2.07,42.55,33.25,44.17l.1,26a15.86,15.86,0,1,0,10,0l-.17-43.35c13.89-1,23-6.06,27.76-15.42,4.32-8.51,4.51-19.5,4.47-31.21l8.85,0-.11-27.19-27.19.1.1,27.2,8.38,0c0,10.85-.11,20.21-3.39,26.67-2.13,4.18-6.24,8.93-18.9,10l-.29-72.9,13.15-.06Z"/></g></g></svg>